<?xml version="1.0" encoding="UTF-8"?>
<svg width="246px" height="137px" viewBox="0 0 246 137" version="1.1" xmlns="http://www.w3.org/2000/svg" xmlns:xlink="http://www.w3.org/1999/xlink">
    <!-- Generator: Sketch 48.2 (47327) - http://www.bohemiancoding.com/sketch -->
    <title>Group 3</title>
    <desc>Created with Sketch.</desc>
    <defs>
        <polygon id="path-1" points="0.0209155775 0.306768448 113.641304 0.306768448 113.641304 136.651748 0.0209155775 136.651748"></polygon>
    </defs>
    <g id="Start-a-Pool-3" stroke="none" stroke-width="1" fill="none" fill-rule="evenodd" transform="translate(-83.000000, -52.000000)">
        <g id="Group-3" transform="translate(83.000000, 52.000000)">
            <path d="M241.779377,60.6273741 C234.828299,60.6273741 231.569506,57.6662647 227.444336,53.9146819 C222.851019,49.7362074 217.643031,45 207.407016,45 C197.173434,45 191.965445,49.7362074 187.369696,53.9146819 C185.650318,55.476334 185.533585,58.1233042 187.110695,59.8284595 C188.685373,61.5342177 191.35503,61.6469702 193.074408,60.0853181 C197.199577,56.3355442 200.457762,53.3726259 207.407016,53.3726259 C214.358702,53.3726259 217.616887,56.3355442 221.739625,60.0853181 C226.335374,64.2637926 231.543363,69 241.779377,69 C244.109171,69 246,67.1254145 246,64.814893 C246,62.5019596 244.109171,60.6273741 241.779377,60.6273741 Z" id="Fill-7" fill="#0000FF"></path>
            <path d="M65.9621472,45.4447596 C59.1779179,46.7174937 55.1295884,50.5020944 51.4784994,53.9146819 C47.4681172,57.6662647 44.298135,60.629786 37.5388577,60.629786 C30.7766234,60.629786 27.6095983,57.6662647 23.596259,53.9146819 C19.1263476,49.7362074 14.0596989,45 4.10500861,45 C1.83634228,45 0,46.8745855 0,49.185107 C0,51.4980404 1.83870793,53.370214 4.10500861,53.370214 C10.8672429,53.370214 14.0366337,56.3337353 18.0476074,60.0853181 C22.5175188,64.2637926 27.5841675,69 37.5388577,69 C47.4959136,69 52.5596053,64.2637926 57.0301081,60.0853181 C59.8461363,57.4525679 62.2456614,55.2079237 65.7635105,54.1032445 C67.2584811,53.6337921 67.4847318,45.1591199 65.9621472,45.4447596 Z" id="Fill-8" fill="#0000FF"></path>
            <g id="Group-2">
                <path d="M241.833522,95.1919254 C234.971617,95.1919254 231.75463,92.2218551 227.682381,88.4636342 C223.147989,84.2750735 218.006812,79.5268293 207.902112,79.5268293 C197.797412,79.5268293 192.656235,84.2750735 188.119443,88.4636342 C184.049595,92.2218551 180.832608,95.1919254 173.973104,95.1919254 C167.110598,95.1919254 163.894212,92.2218551 159.824363,88.4636342 C155.287571,84.2750735 150.146394,79.5268293 140.041694,79.5268293 C129.939395,79.5268293 124.797618,84.2750735 120.261426,88.4636342 C116.190977,92.2242727 112.974591,95.194343 106.114486,95.194343 C99.252581,95.194343 96.0379949,92.2242727 91.9657456,88.4636342 C87.4313546,84.2750735 82.2901773,79.5268293 72.1854774,79.5268293 C62.0831783,79.5268293 56.9420011,84.2750735 52.4052093,88.4636342 C48.3353607,92.2218551 45.1183738,95.1919254 38.2588695,95.1919254 C35.9565632,95.1919254 34.0923913,97.0716402 34.0923913,99.3901566 C34.0923913,101.706255 35.9565632,103.585366 38.2588695,103.585366 C48.3611687,103.585366 53.5023459,98.837726 58.0391377,94.6491653 C62.1089862,90.8879224 65.3253729,87.9202697 72.1854774,87.9202697 C79.0479827,87.9202697 82.2619687,90.8879224 86.334218,94.6491653 C90.868609,98.837726 96.0097862,103.585366 106.114486,103.585366 C116.216785,103.585366 121.358563,98.837726 125.894754,94.6491653 C129.965203,90.89034 133.18159,87.9202697 140.041694,87.9202697 C146.903599,87.9202697 150.120586,90.89034 154.190435,94.6491653 C158.726626,98.837726 163.868404,103.585366 173.970703,103.585366 C184.075403,103.585366 189.21658,98.837726 193.753372,94.6491653 C197.825621,90.89034 201.039607,87.9202697 207.902112,87.9202697 C214.764618,87.9202697 217.981004,90.89034 222.050853,94.6491653 C226.587645,98.837726 231.728822,103.585366 241.833522,103.585366 C244.133427,103.585366 246,101.706255 246,99.3901566 C246,97.0716402 244.133427,95.1919254 241.833522,95.1919254 Z" id="Fill-5" fill="#0000FF"></path>
                <path d="M28.3158105,92.0418681 C26.7975751,90.9784988 25.4040604,89.7049633 23.9259994,88.3550037 C19.3940786,84.2173567 14.2571422,79.5268293 4.16195584,79.5268293 C1.86421563,79.5268293 0,81.3836954 0,83.671641 C0,85.9595867 1.86421563,87.8158557 4.16195584,87.8158557 C11.0180001,87.8158557 14.2313586,90.7498236 18.297975,94.465347 C19.9043544,95.932331 21.5652992,97.4482741 23.5212566,98.8197279 C24.2491941,99.3302168 25.0856627,99.5756098 25.9149358,99.5756098 C27.2215057,99.5756098 28.5124855,98.9642172 29.3225709,97.816662 C30.6459301,95.9460634 30.1938174,93.3595862 28.3158105,92.0418681 Z" id="Fill-6" fill="#19FFC6"></path>
                <g id="invoice" transform="translate(66.847826, 0.000000)">
                    <path d="M90.2160392,128.476738 L95.4035286,123.293546 L105.779902,133.658537 L110.967391,128.476738 L110.967391,42.4137393 C110.967391,37.4551767 106.951001,33.4146341 101.958404,33.4146341 L29.4130435,33.4146341 C34.3770514,33.4146341 38.422031,37.4266191 38.422031,42.4137393 L38.422031,128.44818 L43.6095204,133.631372 L48.7966611,128.44818 L53.9855451,123.266381 L64.3605239,133.631372 L74.7368972,123.266381 L85.111876,133.631372 L90.2160392,128.476738 Z" id="Fill-1" fill="#FFFFFF"></path>
                    <path d="M51.3315841,56.1365854 L98.4092853,56.1365854 C99.8004806,56.1365854 100.940217,54.933126 100.940217,53.4641491 C100.940217,51.9951722 99.8004806,50.7902439 98.4092853,50.7902439 L51.3315841,50.7902439 C49.9403888,50.7902439 48.798913,51.9951722 48.798913,53.4641491 C48.798913,54.933126 49.9403888,56.1365854 51.3315841,56.1365854 Z" id="Fill-2" fill="#0000FF"></path>
                    <path d="M51.3432629,69.502439 L85.6965276,69.502439 C87.0941381,69.502439 88.2391304,68.2975935 88.2391304,66.8287175 C88.2391304,65.3598415 87.0941381,64.1560976 85.6965276,64.1560976 L51.3432629,64.1560976 C49.9456524,64.1560976 48.798913,65.3598415 48.798913,66.8287175 C48.798913,68.3277054 49.9456524,69.502439 51.3432629,69.502439 Z" id="Fill-3" fill="#0000FF"></path>
                    <path d="M51.3315841,81.5317073 L98.4092853,81.5317073 C99.8004806,81.5317073 100.940217,80.32711 100.940217,78.8585366 C100.940217,77.3899632 99.8004806,76.1853659 98.4092853,76.1853659 L51.3315841,76.1853659 C49.9403888,76.1853659 48.798913,77.3899632 48.798913,78.8585366 C48.798913,80.3557472 49.9403888,81.5317073 51.3315841,81.5317073 Z" id="Fill-4" fill="#0000FF"></path>
                    <path d="M55.6741883,90.8878049 L51.2823334,90.8878049 C49.9181915,90.8878049 48.798913,92.0911816 48.798913,93.5600576 C48.798913,95.0289336 49.9181915,96.2341463 51.2823334,96.2341463 L55.6741883,96.2341463 C57.0383302,96.2341463 58.1576087,95.0289336 58.1576087,93.5600576 C58.1576087,92.0911816 57.0383302,90.8878049 55.6741883,90.8878049 Z" id="Fill-5" fill="#0000FF"></path>
                    <path d="M55.6741883,102.917073 L51.2823334,102.917073 C49.9181915,102.917073 48.798913,104.121671 48.798913,105.590244 C48.798913,107.058817 49.9181915,108.263415 51.2823334,108.263415 L55.6741883,108.263415 C57.0383302,108.263415 58.1576087,107.058817 58.1576087,105.590244 C58.1296438,104.093033 57.0383302,102.917073 55.6741883,102.917073 Z" id="Fill-6" fill="#0000FF"></path>
                    <path d="M99.0431649,90.8878049 L66.0723757,90.8878049 C64.6621623,90.8878049 63.5054348,92.0911816 63.5054348,93.5600576 C63.5054348,95.0289336 64.6621623,96.2341463 66.0723757,96.2341463 L99.0431649,96.2341463 C100.453378,96.2341463 101.608696,95.0289336 101.608696,93.5600576 C101.608696,92.0911816 100.453378,90.8878049 99.0431649,90.8878049 Z" id="Fill-7" fill="#0000FF"></path>
                    <g id="Group-11">
                        <mask id="mask-2" fill="white">
                            <use xlink:href="#path-1"></use>
                        </mask>
                        <g id="Clip-9"></g>
                        <path d="M88.2361982,105.501155 C88.2361982,104.106753 87.0924647,102.962646 85.6980928,102.962646 L66.0377986,102.962646 C64.6434267,102.962646 63.4996933,104.106753 63.4996933,105.501155 C63.4996933,106.895557 64.6434267,108.037921 66.0377986,108.037921 L85.6980928,108.037921 C87.0924647,108.037921 88.2361982,106.895557 88.2361982,105.501155 Z" id="Fill-8" fill="#0000FF" mask="url(#mask-2)"></path>
                        <path d="M83.383087,135.898771 C84.3594959,136.875201 85.9773158,136.875201 86.9533761,135.898771 L95.5416608,127.308906 L104.13134,135.898771 C104.633662,136.39971 105.275073,136.651748 105.916484,136.651748 C106.557895,136.651748 107.199306,136.39971 107.701629,135.898771 L112.888344,130.71055 C113.362081,130.236802 113.641304,129.595377 113.641304,128.926761 L113.641304,42.7802545 C113.641304,36.4224784 108.48178,31.2628422 102.124142,31.2628422 L82.7416759,31.2628422 L82.7416759,2.84492875 C82.7416759,1.45052672 81.5979425,0.306768448 80.2035706,0.306768448 L2.53810533,0.306768448 C1.1437335,0.306768448 0,1.45052672 0,2.84492875 L0,88.9628499 C0,95.3209746 5.15952437,100.480262 11.5171627,100.480262 L26.1308767,100.480262 C27.5252486,100.480262 28.6675877,99.3365038 28.6675877,97.9421018 C28.6675877,96.5476997 27.5252486,95.4053359 26.1308767,95.4053359 L21.0543175,95.4053359 C22.3099493,93.5643766 23.0629101,91.3336819 23.0629101,88.9342646 L23.0629101,42.7802545 C23.0629101,39.2112824 25.9632035,36.3105776 29.5324468,36.3105776 C33.1027359,36.3105776 36.0030293,39.2112824 36.0030293,42.7802545 L36.0030293,128.898176 C36.0030293,129.065504 36.0302196,129.233181 36.0588042,129.400509 C36.086343,129.51241 36.1149276,129.595377 36.1421179,129.706929 C36.1707025,129.762705 36.1707025,129.81883 36.1978928,129.874606 C36.2536676,129.986158 36.3094425,130.09771 36.3652174,130.181025 C36.3924076,130.209611 36.3924076,130.265387 36.4209923,130.292578 C36.504306,130.432715 36.6158557,130.571807 36.7274055,130.683359 L41.9141201,135.870186 C42.890529,136.846616 44.5083489,136.846616 45.4844092,135.870186 L54.0740883,127.280321 L62.6637673,135.870186 C63.6387818,136.846616 65.2562532,136.846616 66.232662,135.870186 L74.8223411,127.280321 L83.383087,135.898771 Z M18.0152841,42.7802545 L18.0152841,88.9628499 C18.0152841,92.5321705 15.1146421,95.4325267 11.5457474,95.4325267 C7.97545829,95.4325267 5.07516488,92.5321705 5.07516488,88.9628499 L5.07516488,5.35450382 L77.6940499,5.35450382 L77.6940499,31.2628422 L29.5324468,31.2628422 C23.1744599,31.2628422 18.0152841,36.4224784 18.0152841,42.7802545 Z M64.4475175,130.516031 L55.8578384,121.926165 C55.3569103,121.424878 54.7154993,121.173188 54.0740883,121.173188 C53.4326772,121.173188 52.7912662,121.424878 52.2889437,121.926165 L43.6992646,130.516031 L41.0510039,127.867364 L41.0510039,42.7802545 C41.0510039,42.4180585 41.0224193,42.0558626 40.9952291,41.7208575 C40.9952291,41.6089567 40.9666444,41.5245954 40.9666444,41.4144377 C40.9391056,41.1623995 40.910521,40.9117557 40.8547461,40.6614606 C40.8275558,40.5495598 40.8275558,40.4651985 40.7989712,40.3536463 C40.7431964,40.0472265 40.6602312,39.7122214 40.5483329,39.4058015 C40.5483329,39.3772163 40.5483329,39.3772163 40.5197483,39.3500254 C40.4095929,39.0150204 40.2980431,38.7086005 40.1575602,38.4021807 C40.1303699,38.3178193 40.0745951,38.2348524 40.0460104,38.1229517 C39.9344607,37.8998473 39.851147,37.6763944 39.712407,37.4532901 C39.6566321,37.3699746 39.6280475,37.2856132 39.5722726,37.1754555 C39.433184,36.9234173 39.2658594,36.6441883 39.0981862,36.3938931 C39.0696016,36.3663537 39.0696016,36.3377684 39.0424113,36.3105776 L39.0424113,36.2819924 L102.039782,36.2819924 C105.610071,36.2819924 108.510365,39.1826972 108.510365,42.7530636 L108.510365,127.867364 L105.86071,130.516031 L97.2710304,121.926165 C96.2946216,120.949735 94.6785446,120.949735 93.7021357,121.926165 L85.1124567,130.516031 L76.6074857,121.954751 C75.6310768,120.978321 74.0132569,120.978321 73.0371966,121.954751 L64.4475175,130.516031 Z" id="Fill-10" fill="#0000FF" mask="url(#mask-2)"></path>
                    </g>
                </g>
                <ellipse id="Oval-2" fill="#FFFFFF" cx="71.861413" cy="101.914634" rx="14.3722826" ry="14.3682927"></ellipse>
                <polygon id="Path-6" fill="#FFFFFF" points="81.7838471 90.8016578 94.7997339 101.253883 92.3593821 108.624246 75.3146371 108.624246"></polygon>
            </g>
        </g>
    </g>
</svg>