<?xml version="1.0" encoding="UTF-8"?>
<svg viewBox="0 0 368 438" version="1.1" xmlns="http://www.w3.org/2000/svg" xmlns:xlink="http://www.w3.org/1999/xlink" preserveAspectRatio="none">
    <!-- Generator: Sketch 48.2 (47327) - http://www.bohemiancoding.com/sketch -->
    <title>Group</title>
    <desc>Created with Sketch.</desc>
    <defs>
        <polygon id="path-1" points="0 0 368 0 368 212 0 212"></polygon>
        <polygon id="path-3" points="0 0 368 0 368 212 0 212"></polygon>
        <linearGradient x1="18.0197646%" y1="19.4491395%" x2="100%" y2="72.019762%" id="linearGradient-5">
            <stop stop-color="#36FFE5" offset="0%"></stop>
            <stop stop-color="#19FFC6" offset="100%"></stop>
        </linearGradient>
    </defs>
    <g id="Landing" stroke="none" stroke-width="1" fill="none" fill-rule="evenodd" transform="translate(-23.000000, -126.000000)">
        <g id="Group" transform="translate(23.000000, 126.000000)">
            <g id="006-sea-1" transform="translate(0.000000, 226.000000)">
                <mask id="mask-2" fill="white">
                    <use xlink:href="#path-1"></use>
                </mask>
                <g id="Clip-2"></g>
                <path d="M361.763077,23.4417343 C351.491292,23.4417343 346.67569,18.997915 340.583415,13.3703434 C333.792159,7.10341882 326.096181,0 310.970161,0 C295.847735,0 288.151757,7.10341882 281.360501,13.3703434 C275.264632,18.997915 270.452625,23.4417343 260.180839,23.4417343 C249.908155,23.4417343 245.097045,18.997915 239.001177,13.3703434 C232.209921,7.10341882 224.513943,0 209.390618,0 C194.265497,0 186.56862,7.10341882 179.778263,13.3703434 C173.685089,18.997915 168.870386,23.4417343 158.601296,23.4417343 C148.333104,23.4417343 143.517502,18.997915 137.425227,13.3703434 C130.633972,7.10341882 122.937993,0 107.815567,0 C92.6895474,0 84.9962647,7.10341882 78.2059072,13.3703434 C72.1100385,18.997915 67.2980308,23.4417343 57.026245,23.4417343 C46.7571545,23.4417343 41.9424515,18.997915 35.8492781,13.3703434 C29.0589206,7.10341882 21.3620441,0 6.23602424,0 C2.79322855,0 0,2.81152503 0,6.27687206 C0,9.74583637 2.79322855,12.5582657 6.23602424,12.5582657 C16.5087085,12.5582657 21.3234115,17.002085 27.4165849,22.6260393 C34.2069423,28.8920596 41.9038188,35.9963827 57.026245,35.9963827 C72.1522649,35.9963827 79.8446492,28.8920596 86.6359051,22.6260393 C92.7317738,17.002085 97.5428831,12.5582657 107.815567,12.5582657 C118.084658,12.5582657 122.899361,17.002085 128.991636,22.6260393 C135.782892,28.8920596 143.47887,35.9963827 158.601296,35.9963827 C173.723722,35.9963827 181.420599,28.8956769 188.210956,22.6260393 C194.306825,17.002085 199.118832,12.5582657 209.390618,12.5582657 C219.659709,12.5582657 224.47531,17.002085 230.567585,22.6260393 C237.357943,28.8920596 245.054819,36 260.180839,36 C275.303265,36 282.999243,28.8956769 289.790499,22.6287523 C295.886368,17.002085 300.701071,12.5582657 310.970161,12.5582657 C321.242845,12.5582657 326.057549,17.002085 332.153417,22.6287523 C338.941079,28.8956769 346.637057,36 361.763077,36 C365.209467,36 368,33.1875706 368,29.7186063 C368,26.2532593 365.209467,23.4417343 361.763077,23.4417343 Z" id="Fill-1" fill="#0000FF" mask="url(#mask-2)"></path>
                <path d="M361.771017,82.4440899 C351.512309,82.4440899 346.702838,77.9998241 340.61473,72.371687 C333.835709,66.1041326 326.149528,59 311.042765,59 C295.936002,59 288.249822,66.1041326 281.467212,72.371687 C275.382693,77.9998241 270.573222,82.4440899 260.318102,82.4440899 C250.058496,82.4440899 245.249922,77.9998241 239.165403,72.371687 C232.382793,66.1041326 224.696613,59 209.58985,59 C194.486676,59 186.799598,66.1041326 180.017885,72.371687 C173.932469,77.9998241 169.123895,82.4440899 158.867878,82.4440899 C148.60917,82.4440899 143.803288,77.9998241 137.71518,72.371687 C136.940819,71.6544906 136.162869,70.9372943 135.374152,70.2273332 C132.804315,67.9201859 128.868804,68.1499058 126.579819,70.7356111 C124.290834,73.3258385 124.515156,77.2925763 127.084096,79.6033413 C127.827949,80.2707951 128.563726,80.9491019 129.295914,81.6274086 C136.078524,87.8949629 143.761115,95 158.867878,95 C173.971052,95 181.65813,87.8949629 188.439843,81.6274086 C194.525259,76.0001759 199.333833,71.5559101 209.58985,71.5559101 C219.848559,71.5559101 224.658029,76.0001759 230.742548,81.6274086 C237.524261,87.8949629 245.211339,95 260.314513,95 C275.421276,95 283.107456,87.8949629 289.890066,81.6274086 C295.974585,76.0001759 300.783159,71.5595277 311.042765,71.5595277 C321.302371,71.5595277 326.110945,76.0001759 332.195464,81.6274086 C338.978074,87.8949629 346.664254,95 361.771017,95 C365.20943,95 368,92.187288 368,88.7215928 C368,85.2522799 365.20943,82.4440899 361.771017,82.4440899 Z" id="Fill-3" fill="#0000FF" mask="url(#mask-2)"></path>
                <path d="M116.144734,59.9432986 C113.379298,59.3174476 110.402855,59 107.294981,59 C92.2419969,59 84.5858611,66.1041326 77.8282908,72.371687 C71.7618559,77.9962065 66.9730829,82.4404723 56.7508943,82.4404723 C46.5313881,82.4404723 41.7399327,77.9962065 35.6761802,72.371687 C28.9186099,66.1041326 21.2588977,59 6.20591366,59 C2.77974147,59 0,61.8118076 0,65.2775028 C0,68.7468157 2.77974147,71.5595277 6.20591366,71.5595277 C16.4289963,71.5595277 21.2204516,76.0037935 27.2842042,81.6274086 C34.0417745,87.8949629 41.7014867,95 56.7508943,95 C71.8038784,95 79.4591201,87.8985806 86.2175845,81.6274086 C92.2840193,76.0037935 97.0718983,71.5595277 107.294981,71.5595277 C109.523066,71.5595277 111.53478,71.7675418 113.434732,72.1989449 C116.780435,72.9550308 120.101998,70.8242432 120.849462,67.4399447 C121.596925,64.0556463 119.487755,60.6993845 116.144734,59.9432986 Z" id="Fill-4" fill="#0000FF" mask="url(#mask-2)"></path>
                <path d="M361.76722,199.440472 C351.502256,199.440472 346.689853,194.996207 340.598033,189.372591 C333.814879,183.105037 326.124012,176 311.008038,176 C295.892064,176 288.201197,183.105037 281.414452,189.372591 C275.326223,194.996207 270.51382,199.440472 260.252448,199.440472 C249.986586,199.440472 245.175081,194.996207 239.086852,189.372591 C232.300107,183.105037 224.60924,176 209.493266,176 C194.380884,176 186.689119,183.105037 179.903272,189.372591 C173.814145,194.999824 169.00264,199.44409 158.74037,199.44409 C148.475406,199.44409 143.666594,194.999824 137.574774,189.372591 C130.79162,183.105037 123.100753,176 107.984779,176 C92.8723968,176 85.1815301,183.105037 78.3947846,189.372591 C72.3065559,194.996207 67.4941527,199.440472 57.2327804,199.440472 C53.7886799,199.440472 51,202.253184 51,205.722497 C51,209.188192 53.7886799,212 57.2327804,212 C72.3451629,212 80.0360296,204.895867 86.822775,198.628313 C92.9110037,193.000176 97.7225091,188.559528 107.984779,188.559528 C118.250641,188.559528 123.058555,193.000176 129.150375,198.628313 C135.933529,204.895867 143.624396,212 158.74037,212 C173.852752,212 181.544517,204.895867 188.330364,198.628313 C194.419491,193.003793 199.230996,188.559528 209.493266,188.559528 C219.75823,188.559528 224.570633,193.003793 230.658862,198.628313 C237.444709,204.895867 245.136474,212 260.248856,212 C275.36483,212 283.055697,204.895867 289.842442,198.628313 C295.934263,193.003793 300.742177,188.559528 311.008038,188.559528 C321.2739,188.559528 326.085405,193.003793 332.173634,198.628313 C338.960379,204.895867 346.651246,212 361.76722,212 C365.207729,212 368,209.188192 368,205.722497 C368,202.253184 365.207729,199.440472 361.76722,199.440472 Z" id="Fill-5" fill="#0000FF" mask="url(#mask-2)"></path>
                <path d="M42.3586108,194.726883 C40.0874293,193.13571 38.002822,191.230054 35.791739,189.210042 C29.0122802,183.018672 21.3277574,176 6.22601524,176 C2.78874534,176 0,178.778522 0,182.202091 C0,185.625659 2.78874534,188.403288 6.22601524,188.403288 C16.4822115,188.403288 21.2891868,192.793532 27.3725805,198.353256 C29.7756196,200.548378 32.260285,202.81676 35.18627,204.868936 C36.2752172,205.632806 37.5265198,206 38.7670584,206 C40.7216021,206 42.6528239,205.085142 43.8646589,203.367998 C45.8443182,200.568927 45.167987,196.698651 42.3586108,194.726883 Z" id="Fill-6" fill="#0000FF" mask="url(#mask-2)"></path>
                <path d="M361.739409,140.441061 C351.428643,140.441061 346.594767,135.999397 340.475766,130.372023 C333.662345,124.104311 325.937162,117 310.753741,117 C295.573927,117 287.848744,124.104311 281.031716,130.372023 C278.481305,132.714501 278.308152,136.684956 280.647531,139.242689 C282.983303,141.801326 286.943294,141.970455 289.493705,139.627977 C295.612706,134.003316 300.445681,129.558939 310.753741,129.558939 C321.065409,129.558939 325.898383,134.003316 332.013777,139.627977 C338.830805,145.895689 346.555988,153 361.739409,153 C365.19527,153 368,150.188122 368,146.722339 C368,143.252939 365.19527,140.441061 361.739409,140.441061 Z" id="Fill-7" fill="#0000FF" mask="url(#mask-2)"></path>
                <path d="M273.803366,144.153753 C272.94981,140.79379 269.563352,138.769671 266.232424,139.631595 C264.129434,140.17968 261.886722,140.444679 259.375315,140.444679 C249.134436,140.444679 244.334639,135.999397 238.261226,130.372023 C231.490996,124.104311 223.818844,117 208.739655,117 C193.664048,117 185.991001,124.104311 179.221667,130.372023 C173.147358,135.999397 168.347561,140.444679 158.110264,140.444679 C147.87028,140.444679 143.07317,135.999397 136.996174,130.372023 C130.229527,124.104311 122.557376,117 107.478186,117 C92.4025793,117 84.7304281,124.104311 77.960198,130.372023 C71.8867848,135.999397 67.0860925,140.444679 56.8496909,140.444679 C46.6088111,140.444679 41.812597,135.999397 35.7347056,130.372023 C28.9653712,124.104311 21.2923243,117 6.21671742,117 C2.78099807,117 0,119.811878 0,123.277661 C0,126.747061 2.78458067,129.555321 6.21671742,129.555321 C16.4575973,129.555321 21.2573939,134.000603 27.3317027,139.627977 C34.1010372,145.895689 41.774084,153 56.8496909,153 C71.9288804,153 79.597449,145.895689 86.3676791,139.627977 C92.4446749,134.000603 97.2408889,129.555321 107.481769,129.555321 C117.719066,129.555321 122.518863,134.000603 128.592276,139.627977 C135.362506,145.895689 143.034657,153 158.110264,153 C173.185871,153 180.858918,145.895689 187.628252,139.627977 C193.705248,134.000603 198.502358,129.555321 208.742342,129.555321 C218.979639,129.555321 223.780331,134.000603 229.853745,139.627977 C236.623079,145.895689 244.296126,153 259.375315,153 C262.89433,153 266.243171,152.59391 269.325108,151.795297 C272.652454,150.933374 274.656922,147.510099 273.803366,144.153753 Z" id="Fill-8" fill="#0000FF" mask="url(#mask-2)"></path>
            </g>
            <g id="006-sea-1-copy">
                <mask id="mask-4" fill="white">
                    <use xlink:href="#path-3"></use>
                </mask>
                <g id="Clip-2"></g>
                <path d="M361.763077,23.4417343 C351.491292,23.4417343 346.67569,18.997915 340.583415,13.3703434 C333.792159,7.10341882 326.096181,0 310.970161,0 C295.847735,0 288.151757,7.10341882 281.360501,13.3703434 C275.264632,18.997915 270.452625,23.4417343 260.180839,23.4417343 C249.908155,23.4417343 245.097045,18.997915 239.001177,13.3703434 C232.209921,7.10341882 224.513943,0 209.390618,0 C194.265497,0 186.56862,7.10341882 179.778263,13.3703434 C173.685089,18.997915 168.870386,23.4417343 158.601296,23.4417343 C148.333104,23.4417343 143.517502,18.997915 137.425227,13.3703434 C130.633972,7.10341882 122.937993,0 107.815567,0 C92.6895474,0 84.9962647,7.10341882 78.2059072,13.3703434 C72.1100385,18.997915 67.2980308,23.4417343 57.026245,23.4417343 C46.7571545,23.4417343 41.9424515,18.997915 35.8492781,13.3703434 C29.0589206,7.10341882 21.3620441,0 6.23602424,0 C2.79322855,0 0,2.81152503 0,6.27687206 C0,9.74583637 2.79322855,12.5582657 6.23602424,12.5582657 C16.5087085,12.5582657 21.3234115,17.002085 27.4165849,22.6260393 C34.2069423,28.8920596 41.9038188,35.9963827 57.026245,35.9963827 C72.1522649,35.9963827 79.8446492,28.8920596 86.6359051,22.6260393 C92.7317738,17.002085 97.5428831,12.5582657 107.815567,12.5582657 C118.084658,12.5582657 122.899361,17.002085 128.991636,22.6260393 C135.782892,28.8920596 143.47887,35.9963827 158.601296,35.9963827 C173.723722,35.9963827 181.420599,28.8956769 188.210956,22.6260393 C194.306825,17.002085 199.118832,12.5582657 209.390618,12.5582657 C219.659709,12.5582657 224.47531,17.002085 230.567585,22.6260393 C237.357943,28.8920596 245.054819,36 260.180839,36 C275.303265,36 282.999243,28.8956769 289.790499,22.6287523 C295.886368,17.002085 300.701071,12.5582657 310.970161,12.5582657 C321.242845,12.5582657 326.057549,17.002085 332.153417,22.6287523 C338.941079,28.8956769 346.637057,36 361.763077,36 C365.209467,36 368,33.1875706 368,29.7186063 C368,26.2532593 365.209467,23.4417343 361.763077,23.4417343 Z" id="Fill-1" fill="#0000FF" mask="url(#mask-4)"></path>
                <path d="M361.771017,82.4440899 C351.512309,82.4440899 346.702838,77.9998241 340.61473,72.371687 C333.835709,66.1041326 326.149528,59 311.042765,59 C295.936002,59 288.249822,66.1041326 281.467212,72.371687 C275.382693,77.9998241 270.573222,82.4440899 260.318102,82.4440899 C250.058496,82.4440899 245.249922,77.9998241 239.165403,72.371687 C232.382793,66.1041326 224.696613,59 209.58985,59 C194.486676,59 186.799598,66.1041326 180.017885,72.371687 C173.932469,77.9998241 169.123895,82.4440899 158.867878,82.4440899 C148.60917,82.4440899 143.803288,77.9998241 137.71518,72.371687 C136.940819,71.6544906 136.162869,70.9372943 135.374152,70.2273332 C132.804315,67.9201859 128.868804,68.1499058 126.579819,70.7356111 C124.290834,73.3258385 124.515156,77.2925763 127.084096,79.6033413 C127.827949,80.2707951 128.563726,80.9491019 129.295914,81.6274086 C136.078524,87.8949629 143.761115,95 158.867878,95 C173.971052,95 181.65813,87.8949629 188.439843,81.6274086 C194.525259,76.0001759 199.333833,71.5559101 209.58985,71.5559101 C219.848559,71.5559101 224.658029,76.0001759 230.742548,81.6274086 C237.524261,87.8949629 245.211339,95 260.314513,95 C275.421276,95 283.107456,87.8949629 289.890066,81.6274086 C295.974585,76.0001759 300.783159,71.5595277 311.042765,71.5595277 C321.302371,71.5595277 326.110945,76.0001759 332.195464,81.6274086 C338.978074,87.8949629 346.664254,95 361.771017,95 C365.20943,95 368,92.187288 368,88.7215928 C368,85.2522799 365.20943,82.4440899 361.771017,82.4440899 Z" id="Fill-3" fill="#0000FF" mask="url(#mask-4)"></path>
                <path d="M116.144734,59.9432986 C113.379298,59.3174476 110.402855,59 107.294981,59 C92.2419969,59 84.5858611,66.1041326 77.8282908,72.371687 C71.7618559,77.9962065 66.9730829,82.4404723 56.7508943,82.4404723 C46.5313881,82.4404723 41.7399327,77.9962065 35.6761802,72.371687 C28.9186099,66.1041326 21.2588977,59 6.20591366,59 C2.77974147,59 0,61.8118076 0,65.2775028 C0,68.7468157 2.77974147,71.5595277 6.20591366,71.5595277 C16.4289963,71.5595277 21.2204516,76.0037935 27.2842042,81.6274086 C34.0417745,87.8949629 41.7014867,95 56.7508943,95 C71.8038784,95 79.4591201,87.8985806 86.2175845,81.6274086 C92.2840193,76.0037935 97.0718983,71.5595277 107.294981,71.5595277 C109.523066,71.5595277 111.53478,71.7675418 113.434732,72.1989449 C116.780435,72.9550308 120.101998,70.8242432 120.849462,67.4399447 C121.596925,64.0556463 119.487755,60.6993845 116.144734,59.9432986 Z" id="Fill-4" fill="#0000FF" mask="url(#mask-4)"></path>
                <path d="M361.76722,199.440472 C351.502256,199.440472 346.689853,194.996207 340.598033,189.372591 C333.814879,183.105037 326.124012,176 311.008038,176 C295.892064,176 288.201197,183.105037 281.414452,189.372591 C275.326223,194.996207 270.51382,199.440472 260.252448,199.440472 C249.986586,199.440472 245.175081,194.996207 239.086852,189.372591 C232.300107,183.105037 224.60924,176 209.493266,176 C194.380884,176 186.689119,183.105037 179.903272,189.372591 C173.814145,194.999824 169.00264,199.44409 158.74037,199.44409 C148.475406,199.44409 143.666594,194.999824 137.574774,189.372591 C130.79162,183.105037 123.100753,176 107.984779,176 C92.8723968,176 85.1815301,183.105037 78.3947846,189.372591 C72.3065559,194.996207 67.4941527,199.440472 57.2327804,199.440472 C53.7886799,199.440472 51,202.253184 51,205.722497 C51,209.188192 53.7886799,212 57.2327804,212 C72.3451629,212 80.0360296,204.895867 86.822775,198.628313 C92.9110037,193.000176 97.7225091,188.559528 107.984779,188.559528 C118.250641,188.559528 123.058555,193.000176 129.150375,198.628313 C135.933529,204.895867 143.624396,212 158.74037,212 C173.852752,212 181.544517,204.895867 188.330364,198.628313 C194.419491,193.003793 199.230996,188.559528 209.493266,188.559528 C219.75823,188.559528 224.570633,193.003793 230.658862,198.628313 C237.444709,204.895867 245.136474,212 260.248856,212 C275.36483,212 283.055697,204.895867 289.842442,198.628313 C295.934263,193.003793 300.742177,188.559528 311.008038,188.559528 C321.2739,188.559528 326.085405,193.003793 332.173634,198.628313 C338.960379,204.895867 346.651246,212 361.76722,212 C365.207729,212 368,209.188192 368,205.722497 C368,202.253184 365.207729,199.440472 361.76722,199.440472 Z" id="Fill-5" fill="#0000FF" mask="url(#mask-4)"></path>
                <path d="M42.3586108,194.726883 C40.0874293,193.13571 38.002822,191.230054 35.791739,189.210042 C29.0122802,183.018672 21.3277574,176 6.22601524,176 C2.78874534,176 0,178.778522 0,182.202091 C0,185.625659 2.78874534,188.403288 6.22601524,188.403288 C16.4822115,188.403288 21.2891868,192.793532 27.3725805,198.353256 C29.7756196,200.548378 32.260285,202.81676 35.18627,204.868936 C36.2752172,205.632806 37.5265198,206 38.7670584,206 C40.7216021,206 42.6528239,205.085142 43.8646589,203.367998 C45.8443182,200.568927 45.167987,196.698651 42.3586108,194.726883 Z" id="Fill-6" fill="url(#linearGradient-5)" mask="url(#mask-4)"></path>
                <path d="M361.739409,140.441061 C351.428643,140.441061 346.594767,135.999397 340.475766,130.372023 C333.662345,124.104311 325.937162,117 310.753741,117 C295.573927,117 287.848744,124.104311 281.031716,130.372023 C278.481305,132.714501 278.308152,136.684956 280.647531,139.242689 C282.983303,141.801326 286.943294,141.970455 289.493705,139.627977 C295.612706,134.003316 300.445681,129.558939 310.753741,129.558939 C321.065409,129.558939 325.898383,134.003316 332.013777,139.627977 C338.830805,145.895689 346.555988,153 361.739409,153 C365.19527,153 368,150.188122 368,146.722339 C368,143.252939 365.19527,140.441061 361.739409,140.441061 Z" id="Fill-7" fill="#0000FF" mask="url(#mask-4)"></path>
                <path d="M273.803366,144.153753 C272.94981,140.79379 269.563352,138.769671 266.232424,139.631595 C264.129434,140.17968 261.886722,140.444679 259.375315,140.444679 C249.134436,140.444679 244.334639,135.999397 238.261226,130.372023 C231.490996,124.104311 223.818844,117 208.739655,117 C193.664048,117 185.991001,124.104311 179.221667,130.372023 C173.147358,135.999397 168.347561,140.444679 158.110264,140.444679 C147.87028,140.444679 143.07317,135.999397 136.996174,130.372023 C130.229527,124.104311 122.557376,117 107.478186,117 C92.4025793,117 84.7304281,124.104311 77.960198,130.372023 C71.8867848,135.999397 67.0860925,140.444679 56.8496909,140.444679 C46.6088111,140.444679 41.812597,135.999397 35.7347056,130.372023 C28.9653712,124.104311 21.2923243,117 6.21671742,117 C2.78099807,117 0,119.811878 0,123.277661 C0,126.747061 2.78458067,129.555321 6.21671742,129.555321 C16.4575973,129.555321 21.2573939,134.000603 27.3317027,139.627977 C34.1010372,145.895689 41.774084,153 56.8496909,153 C71.9288804,153 79.597449,145.895689 86.3676791,139.627977 C92.4446749,134.000603 97.2408889,129.555321 107.481769,129.555321 C117.719066,129.555321 122.518863,134.000603 128.592276,139.627977 C135.362506,145.895689 143.034657,153 158.110264,153 C173.185871,153 180.858918,145.895689 187.628252,139.627977 C193.705248,134.000603 198.502358,129.555321 208.742342,129.555321 C218.979639,129.555321 223.780331,134.000603 229.853745,139.627977 C236.623079,145.895689 244.296126,153 259.375315,153 C262.89433,153 266.243171,152.59391 269.325108,151.795297 C272.652454,150.933374 274.656922,147.510099 273.803366,144.153753 Z" id="Fill-8" fill="#0000FF" mask="url(#mask-4)"></path>
            </g>
        </g>
    </g>
</svg>