<?xml version="1.0" encoding="UTF-8"?>
<svg width="90px" height="60px" viewBox="0 0 90 60" version="1.1" xmlns="http://www.w3.org/2000/svg" xmlns:xlink="http://www.w3.org/1999/xlink">
    <!-- Generator: Sketch 48.2 (47327) - http://www.bohemiancoding.com/sketch -->
    <title>Group 3</title>
    <desc>Created with Sketch.</desc>
    <defs></defs>
    <g id="Start-a-Pool" stroke="none" stroke-width="1" fill="none" fill-rule="evenodd" transform="translate(-158.000000, -428.000000)">
        <g id="Group-3" transform="translate(159.000000, 428.000000)">
            <polyline id="Path-4-Copy" stroke="#0000FF" points="0 0 0 58.8113849 88.6709223 58.8113849"></polyline>
            <g id="Group" transform="translate(0.000000, 9.000000)">
                <path d="M0,30.166504 L88.7562763,0.126737949" id="Path-5-Copy" stroke="#0000FF"></path>
                <path d="M21.9997,26.9999 C22.5527,26.9999 22.9997,27.4479 22.9997,27.9999 C22.9997,28.5519 22.5527,28.9999 21.9997,28.9999 C21.4477,28.9999 20.9997,28.5519 20.9997,27.9999 C20.9997,27.4479 21.4477,26.9999 21.9997,26.9999" id="Fill-1" fill="#0000FF"></path>
                <path d="M24.9997,23.9999 C25.5527,23.9999 25.9997,24.4479 25.9997,24.9999 C25.9997,25.5519 25.5527,25.9999 24.9997,25.9999 C24.4477,25.9999 23.9997,25.5519 23.9997,24.9999 C23.9997,24.4479 24.4477,23.9999 24.9997,23.9999" id="Fill-3" fill="#0000FF"></path>
                <path d="M24.9997,29.9999 C25.5527,29.9999 25.9997,30.4479 25.9997,30.9999 C25.9997,31.5519 25.5527,31.9999 24.9997,31.9999 C24.4477,31.9999 23.9997,31.5519 23.9997,30.9999 C23.9997,30.4479 24.4477,29.9999 24.9997,29.9999" id="Fill-6" fill="#0000FF"></path>
                <path d="M27.9997,26.9999 C28.5527,26.9999 28.9997,27.4479 28.9997,27.9999 C28.9997,28.5519 28.5527,28.9999 27.9997,28.9999 C27.4477,28.9999 26.9997,28.5519 26.9997,27.9999 C26.9997,27.4479 27.4477,26.9999 27.9997,26.9999" id="Fill-8" fill="#0000FF"></path>
                <path d="M16.0002,26.9999 C16.5522,26.9999 17.0002,27.4479 17.0002,27.9999 C17.0002,28.5519 16.5522,28.9999 16.0002,28.9999 C15.4472,28.9999 15.0002,28.5519 15.0002,27.9999 C15.0002,27.4479 15.4472,26.9999 16.0002,26.9999" id="Fill-10" fill="#0000FF"></path>
                <path d="M18.9997,29.9999 C19.5527,29.9999 19.9997,30.4479 19.9997,30.9999 C19.9997,31.5519 19.5527,31.9999 18.9997,31.9999 C18.4477,31.9999 17.9997,31.5519 17.9997,30.9999 C17.9997,30.4479 18.4477,29.9999 18.9997,29.9999" id="Fill-15" fill="#0000FF"></path>
                <path d="M7.0002,29.9999 C7.5522,29.9999 8.0002,30.4479 8.0002,30.9999 C8.0002,31.5519 7.5522,31.9999 7.0002,31.9999 C6.4472,31.9999 6.0002,31.5519 6.0002,30.9999 C6.0002,30.4479 6.4472,29.9999 7.0002,29.9999" id="Fill-27" fill="#0000FF"></path>
                <path d="M13.0002,29.9999 C13.5522,29.9999 14.0002,30.4479 14.0002,30.9999 C14.0002,31.5519 13.5522,31.9999 13.0002,31.9999 C12.4472,31.9999 12.0002,31.5519 12.0002,30.9999 C12.0002,30.4479 12.4472,29.9999 13.0002,29.9999" id="Fill-29" fill="#0000FF"></path>
                <path d="M30.9997,23.9999 C31.5527,23.9999 31.9997,24.4479 31.9997,24.9999 C31.9997,25.5519 31.5527,25.9999 30.9997,25.9999 C30.4477,25.9999 29.9997,25.5519 29.9997,24.9999 C29.9997,24.4479 30.4477,23.9999 30.9997,23.9999" id="Fill-31" fill="#0000FF"></path>
                <path d="M30.9997,29.9999 C31.5527,29.9999 31.9997,30.4479 31.9997,30.9999 C31.9997,31.5519 31.5527,31.9999 30.9997,31.9999 C30.4477,31.9999 29.9997,31.5519 29.9997,30.9999 C29.9997,30.4479 30.4477,29.9999 30.9997,29.9999" id="Fill-34" fill="#0000FF"></path>
                <path d="M33.9997,26.9999 C34.5527,26.9999 34.9997,27.4479 34.9997,27.9999 C34.9997,28.5519 34.5527,28.9999 33.9997,28.9999 C33.4477,28.9999 32.9997,28.5519 32.9997,27.9999 C32.9997,27.4479 33.4477,26.9999 33.9997,26.9999" id="Fill-36" fill="#0000FF"></path>
                <path d="M39.9997,26.9999 C40.5527,26.9999 40.9997,27.4479 40.9997,27.9999 C40.9997,28.5519 40.5527,28.9999 39.9997,28.9999 C39.4477,28.9999 38.9997,28.5519 38.9997,27.9999 C38.9997,27.4479 39.4477,26.9999 39.9997,26.9999" id="Fill-38" fill="#0000FF"></path>
                <path d="M21.9997,32.9999 C22.5527,32.9999 22.9997,33.4479 22.9997,33.9999 C22.9997,34.5519 22.5527,34.9999 21.9997,34.9999 C21.4477,34.9999 20.9997,34.5519 20.9997,33.9999 C20.9997,33.4479 21.4477,32.9999 21.9997,32.9999" id="Fill-40" fill="#0000FF"></path>
                <path d="M27.9997,32.9999 C28.5527,32.9999 28.9997,33.4479 28.9997,33.9999 C28.9997,34.5519 28.5527,34.9999 27.9997,34.9999 C27.4477,34.9999 26.9997,34.5519 26.9997,33.9999 C26.9997,33.4479 27.4477,32.9999 27.9997,32.9999" id="Fill-42" fill="#0000FF"></path>
                <path d="M16.0002,32.9999 C16.5522,32.9999 17.0002,33.4479 17.0002,33.9999 C17.0002,34.5519 16.5522,34.9999 16.0002,34.9999 C15.4472,34.9999 15.0002,34.5519 15.0002,33.9999 C15.0002,33.4479 15.4472,32.9999 16.0002,32.9999" id="Fill-44" fill="#0000FF"></path>
                <path d="M4.0002,32.9999 C4.5522,32.9999 5.0002,33.4479 5.0002,33.9999 C5.0002,34.5519 4.5522,34.9999 4.0002,34.9999 C3.4472,34.9999 3.0002,34.5519 3.0002,33.9999 C3.0002,33.4479 3.4472,32.9999 4.0002,32.9999" id="Fill-46" fill="#0000FF"></path>
                <path d="M10.0002,32.9999 C10.5522,32.9999 11.0002,33.4479 11.0002,33.9999 C11.0002,34.5519 10.5522,34.9999 10.0002,34.9999 C9.4472,34.9999 9.0002,34.5519 9.0002,33.9999 C9.0002,33.4479 9.4472,32.9999 10.0002,32.9999" id="Fill-48" fill="#0000FF"></path>
                <path d="M33.9997,32.9999 C34.5527,32.9999 34.9997,33.4479 34.9997,33.9999 C34.9997,34.5519 34.5527,34.9999 33.9997,34.9999 C33.4477,34.9999 32.9997,34.5519 32.9997,33.9999 C32.9997,33.4479 33.4477,32.9999 33.9997,32.9999" id="Fill-50" fill="#0000FF"></path>
                <path d="M39.9997,32.9999 C40.5527,32.9999 40.9997,33.4479 40.9997,33.9999 C40.9997,34.5519 40.5527,34.9999 39.9997,34.9999 C39.4477,34.9999 38.9997,34.5519 38.9997,33.9999 C38.9997,33.4479 39.4477,32.9999 39.9997,32.9999" id="Fill-52" fill="#0000FF"></path>
                <path d="M36.9997,23.9999 C37.5527,23.9999 37.9997,24.4479 37.9997,24.9999 C37.9997,25.5519 37.5527,25.9999 36.9997,25.9999 C36.4477,25.9999 35.9997,25.5519 35.9997,24.9999 C35.9997,24.4479 36.4477,23.9999 36.9997,23.9999" id="Fill-54" fill="#0000FF"></path>
                <path d="M42.9997,23.9999 C43.5527,23.9999 43.9997,24.4479 43.9997,24.9999 C43.9997,25.5519 43.5527,25.9999 42.9997,25.9999 C42.4477,25.9999 41.9997,25.5519 41.9997,24.9999 C41.9997,24.4479 42.4477,23.9999 42.9997,23.9999" id="Fill-57" fill="#0000FF"></path>
                <path d="M36.9997,29.9999 C37.5527,29.9999 37.9997,30.4479 37.9997,30.9999 C37.9997,31.5519 37.5527,31.9999 36.9997,31.9999 C36.4477,31.9999 35.9997,31.5519 35.9997,30.9999 C35.9997,30.4479 36.4477,29.9999 36.9997,29.9999" id="Fill-60" fill="#0000FF"></path>
                <path d="M42.9997,29.9999 C43.5527,29.9999 43.9997,30.4479 43.9997,30.9999 C43.9997,31.5519 43.5527,31.9999 42.9997,31.9999 C42.4477,31.9999 41.9997,31.5519 41.9997,30.9999 C41.9997,30.4479 42.4477,29.9999 42.9997,29.9999" id="Fill-62" fill="#0000FF"></path>
                <path d="M21.9997,38.9999 C22.5527,38.9999 22.9997,39.4479 22.9997,39.9999 C22.9997,40.5529 22.5527,40.9999 21.9997,40.9999 C21.4477,40.9999 20.9997,40.5529 20.9997,39.9999 C20.9997,39.4479 21.4477,38.9999 21.9997,38.9999" id="Fill-64" fill="#0000FF"></path>
                <path d="M24.9997,35.9999 C25.5527,35.9999 25.9997,36.4479 25.9997,36.9999 C25.9997,37.5519 25.5527,37.9999 24.9997,37.9999 C24.4477,37.9999 23.9997,37.5519 23.9997,36.9999 C23.9997,36.4479 24.4477,35.9999 24.9997,35.9999" id="Fill-66" fill="#0000FF"></path>
                <path d="M24.9997,41.9999 C25.5527,41.9999 25.9997,42.4479 25.9997,42.9999 C25.9997,43.5529 25.5527,43.9999 24.9997,43.9999 C24.4477,43.9999 23.9997,43.5529 23.9997,42.9999 C23.9997,42.4479 24.4477,41.9999 24.9997,41.9999" id="Fill-68" fill="#0000FF"></path>
                <path d="M27.9997,38.9999 C28.5527,38.9999 28.9997,39.4479 28.9997,39.9999 C28.9997,40.5529 28.5527,40.9999 27.9997,40.9999 C27.4477,40.9999 26.9997,40.5529 26.9997,39.9999 C26.9997,39.4479 27.4477,38.9999 27.9997,38.9999" id="Fill-70" fill="#0000FF"></path>
                <path d="M16.0002,38.9999 C16.5522,38.9999 17.0002,39.4479 17.0002,39.9999 C17.0002,40.5529 16.5522,40.9999 16.0002,40.9999 C15.4472,40.9999 15.0002,40.5529 15.0002,39.9999 C15.0002,39.4479 15.4472,38.9999 16.0002,38.9999" id="Fill-72" fill="#0000FF"></path>
                <path d="M18.9997,35.9999 C19.5527,35.9999 19.9997,36.4479 19.9997,36.9999 C19.9997,37.5519 19.5527,37.9999 18.9997,37.9999 C18.4477,37.9999 17.9997,37.5519 17.9997,36.9999 C17.9997,36.4479 18.4477,35.9999 18.9997,35.9999" id="Fill-74" fill="#0000FF"></path>
                <path d="M18.9997,41.9999 C19.5527,41.9999 19.9997,42.4479 19.9997,42.9999 C19.9997,43.5529 19.5527,43.9999 18.9997,43.9999 C18.4477,43.9999 17.9997,43.5529 17.9997,42.9999 C17.9997,42.4479 18.4477,41.9999 18.9997,41.9999" id="Fill-76" fill="#0000FF"></path>
                <path d="M10.0002,38.9999 C10.5522,38.9999 11.0002,39.4479 11.0002,39.9999 C11.0002,40.5529 10.5522,40.9999 10.0002,40.9999 C9.4472,40.9999 9.0002,40.5529 9.0002,39.9999 C9.0002,39.4479 9.4472,38.9999 10.0002,38.9999" id="Fill-78" fill="#0000FF"></path>
                <path d="M7,36 C7.552,36 8,36.448 8,37 C8,37.552 7.552,38 7,38 C6.447,38 6,37.552 6,37 C6,36.448 6.447,36 7,36" id="Fill-80" fill="#0000FF"></path>
                <path d="M4,39 C4.552,39 5,39.448 5,40 C5,40.552 4.552,41 4,41 C3.447,41 3,40.552 3,40 C3,39.448 3.447,39 4,39" id="Fill-80-Copy" fill="#0000FF"></path>
                <path d="M4,45 C4.552,45 5,45.448 5,46 C5,46.552 4.552,47 4,47 C3.447,47 3,46.552 3,46 C3,45.448 3.447,45 4,45" id="Fill-80-Copy-2" fill="#0000FF"></path>
                <path d="M13.0002,35.9999 C13.5522,35.9999 14.0002,36.4479 14.0002,36.9999 C14.0002,37.5519 13.5522,37.9999 13.0002,37.9999 C12.4472,37.9999 12.0002,37.5519 12.0002,36.9999 C12.0002,36.4479 12.4472,35.9999 13.0002,35.9999" id="Fill-82" fill="#0000FF"></path>
                <path d="M7.0002,41.9999 C7.5522,41.9999 8.0002,42.4479 8.0002,42.9999 C8.0002,43.5529 7.5522,43.9999 7.0002,43.9999 C6.4472,43.9999 6.0002,43.5529 6.0002,42.9999 C6.0002,42.4479 6.4472,41.9999 7.0002,41.9999" id="Fill-84" fill="#0000FF"></path>
                <path d="M13.0002,41.9999 C13.5522,41.9999 14.0002,42.4479 14.0002,42.9999 C14.0002,43.5529 13.5522,43.9999 13.0002,43.9999 C12.4472,43.9999 12.0002,43.5529 12.0002,42.9999 C12.0002,42.4479 12.4472,41.9999 13.0002,41.9999" id="Fill-86" fill="#0000FF"></path>
                <path d="M30.9997,35.9999 C31.5527,35.9999 31.9997,36.4479 31.9997,36.9999 C31.9997,37.5519 31.5527,37.9999 30.9997,37.9999 C30.4477,37.9999 29.9997,37.5519 29.9997,36.9999 C29.9997,36.4479 30.4477,35.9999 30.9997,35.9999" id="Fill-88" fill="#0000FF"></path>
                <path d="M30.9997,41.9999 C31.5527,41.9999 31.9997,42.4479 31.9997,42.9999 C31.9997,43.5529 31.5527,43.9999 30.9997,43.9999 C30.4477,43.9999 29.9997,43.5529 29.9997,42.9999 C29.9997,42.4479 30.4477,41.9999 30.9997,41.9999" id="Fill-90" fill="#0000FF"></path>
                <path d="M33.9997,38.9999 C34.5527,38.9999 34.9997,39.4479 34.9997,39.9999 C34.9997,40.5529 34.5527,40.9999 33.9997,40.9999 C33.4477,40.9999 32.9997,40.5529 32.9997,39.9999 C32.9997,39.4479 33.4477,38.9999 33.9997,38.9999" id="Fill-92" fill="#0000FF"></path>
                <path d="M39.9997,38.9999 C40.5527,38.9999 40.9997,39.4479 40.9997,39.9999 C40.9997,40.5529 40.5527,40.9999 39.9997,40.9999 C39.4477,40.9999 38.9997,40.5529 38.9997,39.9999 C38.9997,39.4479 39.4477,38.9999 39.9997,38.9999" id="Fill-94" fill="#0000FF"></path>
                <path d="M21.9997,44.9999 C22.5527,44.9999 22.9997,45.4479 22.9997,45.9999 C22.9997,46.5529 22.5527,46.9999 21.9997,46.9999 C21.4477,46.9999 20.9997,46.5529 20.9997,45.9999 C20.9997,45.4479 21.4477,44.9999 21.9997,44.9999" id="Fill-96" fill="#0000FF"></path>
                <path d="M27.9997,44.9999 C28.5527,44.9999 28.9997,45.4479 28.9997,45.9999 C28.9997,46.5529 28.5527,46.9999 27.9997,46.9999 C27.4477,46.9999 26.9997,46.5529 26.9997,45.9999 C26.9997,45.4479 27.4477,44.9999 27.9997,44.9999" id="Fill-98" fill="#0000FF"></path>
                <path d="M16.0002,44.9999 C16.5522,44.9999 17.0002,45.4479 17.0002,45.9999 C17.0002,46.5529 16.5522,46.9999 16.0002,46.9999 C15.4472,46.9999 15.0002,46.5529 15.0002,45.9999 C15.0002,45.4479 15.4472,44.9999 16.0002,44.9999" id="Fill-100" fill="#0000FF"></path>
                <path d="M10.0002,44.9999 C10.5522,44.9999 11.0002,45.4479 11.0002,45.9999 C11.0002,46.5529 10.5522,46.9999 10.0002,46.9999 C9.4472,46.9999 9.0002,46.5529 9.0002,45.9999 C9.0002,45.4479 9.4472,44.9999 10.0002,44.9999" id="Fill-102" fill="#0000FF"></path>
                <path d="M33.9997,44.9999 C34.5527,44.9999 34.9997,45.4479 34.9997,45.9999 C34.9997,46.5529 34.5527,46.9999 33.9997,46.9999 C33.4477,46.9999 32.9997,46.5529 32.9997,45.9999 C32.9997,45.4479 33.4477,44.9999 33.9997,44.9999" id="Fill-104" fill="#0000FF"></path>
                <path d="M39.9997,44.9999 C40.5527,44.9999 40.9997,45.4479 40.9997,45.9999 C40.9997,46.5529 40.5527,46.9999 39.9997,46.9999 C39.4477,46.9999 38.9997,46.5529 38.9997,45.9999 C38.9997,45.4479 39.4477,44.9999 39.9997,44.9999" id="Fill-106" fill="#0000FF"></path>
                <path d="M36.9997,35.9999 C37.5527,35.9999 37.9997,36.4479 37.9997,36.9999 C37.9997,37.5519 37.5527,37.9999 36.9997,37.9999 C36.4477,37.9999 35.9997,37.5519 35.9997,36.9999 C35.9997,36.4479 36.4477,35.9999 36.9997,35.9999" id="Fill-108" fill="#0000FF"></path>
                <path d="M42.9997,35.9999 C43.5527,35.9999 43.9997,36.4479 43.9997,36.9999 C43.9997,37.5519 43.5527,37.9999 42.9997,37.9999 C42.4477,37.9999 41.9997,37.5519 41.9997,36.9999 C41.9997,36.4479 42.4477,35.9999 42.9997,35.9999" id="Fill-110" fill="#0000FF"></path>
                <path d="M36.9997,41.9999 C37.5527,41.9999 37.9997,42.4479 37.9997,42.9999 C37.9997,43.5529 37.5527,43.9999 36.9997,43.9999 C36.4477,43.9999 35.9997,43.5529 35.9997,42.9999 C35.9997,42.4479 36.4477,41.9999 36.9997,41.9999" id="Fill-112" fill="#0000FF"></path>
                <path d="M42.9997,41.9999 C43.5527,41.9999 43.9997,42.4479 43.9997,42.9999 C43.9997,43.5529 43.5527,43.9999 42.9997,43.9999 C42.4477,43.9999 41.9997,43.5529 41.9997,42.9999 C41.9997,42.4479 42.4477,41.9999 42.9997,41.9999" id="Fill-114" fill="#0000FF"></path>
                <path d="M63.9997,26.9999 C64.5527,26.9999 64.9997,27.4479 64.9997,27.9999 C64.9997,28.5519 64.5527,28.9999 63.9997,28.9999 C63.4477,28.9999 62.9997,28.5519 62.9997,27.9999 C62.9997,27.4479 63.4477,26.9999 63.9997,26.9999" id="Fill-1" fill="#0000FF"></path>
                <path d="M66.9997,23.9999 C67.5527,23.9999 67.9997,24.4479 67.9997,24.9999 C67.9997,25.5519 67.5527,25.9999 66.9997,25.9999 C66.4477,25.9999 65.9997,25.5519 65.9997,24.9999 C65.9997,24.4479 66.4477,23.9999 66.9997,23.9999" id="Fill-3" fill="#0000FF"></path>
                <path d="M66.9997,29.9999 C67.5527,29.9999 67.9997,30.4479 67.9997,30.9999 C67.9997,31.5519 67.5527,31.9999 66.9997,31.9999 C66.4477,31.9999 65.9997,31.5519 65.9997,30.9999 C65.9997,30.4479 66.4477,29.9999 66.9997,29.9999" id="Fill-6" fill="#0000FF"></path>
                <path d="M69.9997,26.9999 C70.5527,26.9999 70.9997,27.4479 70.9997,27.9999 C70.9997,28.5519 70.5527,28.9999 69.9997,28.9999 C69.4477,28.9999 68.9997,28.5519 68.9997,27.9999 C68.9997,27.4479 69.4477,26.9999 69.9997,26.9999" id="Fill-8" fill="#0000FF"></path>
                <path d="M58.0002,26.9999 C58.5522,26.9999 59.0002,27.4479 59.0002,27.9999 C59.0002,28.5519 58.5522,28.9999 58.0002,28.9999 C57.4472,28.9999 57.0002,28.5519 57.0002,27.9999 C57.0002,27.4479 57.4472,26.9999 58.0002,26.9999" id="Fill-10" fill="#0000FF"></path>
                <path d="M60.9997,23.9999 C61.5527,23.9999 61.9997,24.4479 61.9997,24.9999 C61.9997,25.5519 61.5527,25.9999 60.9997,25.9999 C60.4477,25.9999 59.9997,25.5519 59.9997,24.9999 C59.9997,24.4479 60.4477,23.9999 60.9997,23.9999" id="Fill-12" fill="#0000FF"></path>
                <path d="M60.9997,29.9999 C61.5527,29.9999 61.9997,30.4479 61.9997,30.9999 C61.9997,31.5519 61.5527,31.9999 60.9997,31.9999 C60.4477,31.9999 59.9997,31.5519 59.9997,30.9999 C59.9997,30.4479 60.4477,29.9999 60.9997,29.9999" id="Fill-15" fill="#0000FF"></path>
                <path d="M46.0002,26.9999 C46.5522,26.9999 47.0002,27.4479 47.0002,27.9999 C47.0002,28.5519 46.5522,28.9999 46.0002,28.9999 C45.4472,28.9999 45.0002,28.5519 45.0002,27.9999 C45.0002,27.4479 45.4472,26.9999 46.0002,26.9999" id="Fill-17" fill="#0000FF"></path>
                <path d="M52.0002,26.9999 C52.5522,26.9999 53.0002,27.4479 53.0002,27.9999 C53.0002,28.5519 52.5522,28.9999 52.0002,28.9999 C51.4472,28.9999 51.0002,28.5519 51.0002,27.9999 C51.0002,27.4479 51.4472,26.9999 52.0002,26.9999" id="Fill-19" fill="#0000FF"></path>
                <path d="M49.0002,23.9999 C49.5522,23.9999 50.0002,24.4479 50.0002,24.9999 C50.0002,25.5519 49.5522,25.9999 49.0002,25.9999 C48.4472,25.9999 48.0002,25.5519 48.0002,24.9999 C48.0002,24.4479 48.4472,23.9999 49.0002,23.9999" id="Fill-21" fill="#0000FF"></path>
                <path d="M55.0002,23.9999 C55.5522,23.9999 56.0002,24.4479 56.0002,24.9999 C56.0002,25.5519 55.5522,25.9999 55.0002,25.9999 C54.4472,25.9999 54.0002,25.5519 54.0002,24.9999 C54.0002,24.4479 54.4472,23.9999 55.0002,23.9999" id="Fill-24" fill="#0000FF"></path>
                <path d="M49.0002,29.9999 C49.5522,29.9999 50.0002,30.4479 50.0002,30.9999 C50.0002,31.5519 49.5522,31.9999 49.0002,31.9999 C48.4472,31.9999 48.0002,31.5519 48.0002,30.9999 C48.0002,30.4479 48.4472,29.9999 49.0002,29.9999" id="Fill-27" fill="#0000FF"></path>
                <path d="M55.0002,29.9999 C55.5522,29.9999 56.0002,30.4479 56.0002,30.9999 C56.0002,31.5519 55.5522,31.9999 55.0002,31.9999 C54.4472,31.9999 54.0002,31.5519 54.0002,30.9999 C54.0002,30.4479 54.4472,29.9999 55.0002,29.9999" id="Fill-29" fill="#0000FF"></path>
                <path d="M72.9997,23.9999 C73.5527,23.9999 73.9997,24.4479 73.9997,24.9999 C73.9997,25.5519 73.5527,25.9999 72.9997,25.9999 C72.4477,25.9999 71.9997,25.5519 71.9997,24.9999 C71.9997,24.4479 72.4477,23.9999 72.9997,23.9999" id="Fill-31" fill="#0000FF"></path>
                <path d="M72.9997,29.9999 C73.5527,29.9999 73.9997,30.4479 73.9997,30.9999 C73.9997,31.5519 73.5527,31.9999 72.9997,31.9999 C72.4477,31.9999 71.9997,31.5519 71.9997,30.9999 C71.9997,30.4479 72.4477,29.9999 72.9997,29.9999" id="Fill-34" fill="#0000FF"></path>
                <path d="M75.9997,26.9999 C76.5527,26.9999 76.9997,27.4479 76.9997,27.9999 C76.9997,28.5519 76.5527,28.9999 75.9997,28.9999 C75.4477,28.9999 74.9997,28.5519 74.9997,27.9999 C74.9997,27.4479 75.4477,26.9999 75.9997,26.9999" id="Fill-36" fill="#0000FF"></path>
                <path d="M81.9997,26.9999 C82.5527,26.9999 82.9997,27.4479 82.9997,27.9999 C82.9997,28.5519 82.5527,28.9999 81.9997,28.9999 C81.4477,28.9999 80.9997,28.5519 80.9997,27.9999 C80.9997,27.4479 81.4477,26.9999 81.9997,26.9999" id="Fill-38" fill="#0000FF"></path>
                <path d="M63.9997,32.9999 C64.5527,32.9999 64.9997,33.4479 64.9997,33.9999 C64.9997,34.5519 64.5527,34.9999 63.9997,34.9999 C63.4477,34.9999 62.9997,34.5519 62.9997,33.9999 C62.9997,33.4479 63.4477,32.9999 63.9997,32.9999" id="Fill-40" fill="#0000FF"></path>
                <path d="M69.9997,32.9999 C70.5527,32.9999 70.9997,33.4479 70.9997,33.9999 C70.9997,34.5519 70.5527,34.9999 69.9997,34.9999 C69.4477,34.9999 68.9997,34.5519 68.9997,33.9999 C68.9997,33.4479 69.4477,32.9999 69.9997,32.9999" id="Fill-42" fill="#0000FF"></path>
                <path d="M58.0002,32.9999 C58.5522,32.9999 59.0002,33.4479 59.0002,33.9999 C59.0002,34.5519 58.5522,34.9999 58.0002,34.9999 C57.4472,34.9999 57.0002,34.5519 57.0002,33.9999 C57.0002,33.4479 57.4472,32.9999 58.0002,32.9999" id="Fill-44" fill="#0000FF"></path>
                <path d="M46.0002,32.9999 C46.5522,32.9999 47.0002,33.4479 47.0002,33.9999 C47.0002,34.5519 46.5522,34.9999 46.0002,34.9999 C45.4472,34.9999 45.0002,34.5519 45.0002,33.9999 C45.0002,33.4479 45.4472,32.9999 46.0002,32.9999" id="Fill-46" fill="#0000FF"></path>
                <path d="M52.0002,32.9999 C52.5522,32.9999 53.0002,33.4479 53.0002,33.9999 C53.0002,34.5519 52.5522,34.9999 52.0002,34.9999 C51.4472,34.9999 51.0002,34.5519 51.0002,33.9999 C51.0002,33.4479 51.4472,32.9999 52.0002,32.9999" id="Fill-48" fill="#0000FF"></path>
                <path d="M75.9997,32.9999 C76.5527,32.9999 76.9997,33.4479 76.9997,33.9999 C76.9997,34.5519 76.5527,34.9999 75.9997,34.9999 C75.4477,34.9999 74.9997,34.5519 74.9997,33.9999 C74.9997,33.4479 75.4477,32.9999 75.9997,32.9999" id="Fill-50" fill="#0000FF"></path>
                <path d="M81.9997,32.9999 C82.5527,32.9999 82.9997,33.4479 82.9997,33.9999 C82.9997,34.5519 82.5527,34.9999 81.9997,34.9999 C81.4477,34.9999 80.9997,34.5519 80.9997,33.9999 C80.9997,33.4479 81.4477,32.9999 81.9997,32.9999" id="Fill-52" fill="#0000FF"></path>
                <path d="M78.9997,23.9999 C79.5527,23.9999 79.9997,24.4479 79.9997,24.9999 C79.9997,25.5519 79.5527,25.9999 78.9997,25.9999 C78.4477,25.9999 77.9997,25.5519 77.9997,24.9999 C77.9997,24.4479 78.4477,23.9999 78.9997,23.9999" id="Fill-54" fill="#0000FF"></path>
                <path d="M84.9997,23.9999 C85.5527,23.9999 85.9997,24.4479 85.9997,24.9999 C85.9997,25.5519 85.5527,25.9999 84.9997,25.9999 C84.4477,25.9999 83.9997,25.5519 83.9997,24.9999 C83.9997,24.4479 84.4477,23.9999 84.9997,23.9999" id="Fill-57" fill="#0000FF"></path>
                <path d="M78.9997,29.9999 C79.5527,29.9999 79.9997,30.4479 79.9997,30.9999 C79.9997,31.5519 79.5527,31.9999 78.9997,31.9999 C78.4477,31.9999 77.9997,31.5519 77.9997,30.9999 C77.9997,30.4479 78.4477,29.9999 78.9997,29.9999" id="Fill-60" fill="#0000FF"></path>
                <path d="M84.9997,29.9999 C85.5527,29.9999 85.9997,30.4479 85.9997,30.9999 C85.9997,31.5519 85.5527,31.9999 84.9997,31.9999 C84.4477,31.9999 83.9997,31.5519 83.9997,30.9999 C83.9997,30.4479 84.4477,29.9999 84.9997,29.9999" id="Fill-62" fill="#0000FF"></path>
                <path d="M63.9997,38.9999 C64.5527,38.9999 64.9997,39.4479 64.9997,39.9999 C64.9997,40.5529 64.5527,40.9999 63.9997,40.9999 C63.4477,40.9999 62.9997,40.5529 62.9997,39.9999 C62.9997,39.4479 63.4477,38.9999 63.9997,38.9999" id="Fill-64" fill="#0000FF"></path>
                <path d="M66.9997,35.9999 C67.5527,35.9999 67.9997,36.4479 67.9997,36.9999 C67.9997,37.5519 67.5527,37.9999 66.9997,37.9999 C66.4477,37.9999 65.9997,37.5519 65.9997,36.9999 C65.9997,36.4479 66.4477,35.9999 66.9997,35.9999" id="Fill-66" fill="#0000FF"></path>
                <path d="M66.9997,41.9999 C67.5527,41.9999 67.9997,42.4479 67.9997,42.9999 C67.9997,43.5529 67.5527,43.9999 66.9997,43.9999 C66.4477,43.9999 65.9997,43.5529 65.9997,42.9999 C65.9997,42.4479 66.4477,41.9999 66.9997,41.9999" id="Fill-68" fill="#0000FF"></path>
                <path d="M69.9997,38.9999 C70.5527,38.9999 70.9997,39.4479 70.9997,39.9999 C70.9997,40.5529 70.5527,40.9999 69.9997,40.9999 C69.4477,40.9999 68.9997,40.5529 68.9997,39.9999 C68.9997,39.4479 69.4477,38.9999 69.9997,38.9999" id="Fill-70" fill="#0000FF"></path>
                <path d="M58.0002,38.9999 C58.5522,38.9999 59.0002,39.4479 59.0002,39.9999 C59.0002,40.5529 58.5522,40.9999 58.0002,40.9999 C57.4472,40.9999 57.0002,40.5529 57.0002,39.9999 C57.0002,39.4479 57.4472,38.9999 58.0002,38.9999" id="Fill-72" fill="#0000FF"></path>
                <path d="M60.9997,35.9999 C61.5527,35.9999 61.9997,36.4479 61.9997,36.9999 C61.9997,37.5519 61.5527,37.9999 60.9997,37.9999 C60.4477,37.9999 59.9997,37.5519 59.9997,36.9999 C59.9997,36.4479 60.4477,35.9999 60.9997,35.9999" id="Fill-74" fill="#0000FF"></path>
                <path d="M60.9997,41.9999 C61.5527,41.9999 61.9997,42.4479 61.9997,42.9999 C61.9997,43.5529 61.5527,43.9999 60.9997,43.9999 C60.4477,43.9999 59.9997,43.5529 59.9997,42.9999 C59.9997,42.4479 60.4477,41.9999 60.9997,41.9999" id="Fill-76" fill="#0000FF"></path>
                <path d="M52.0002,38.9999 C52.5522,38.9999 53.0002,39.4479 53.0002,39.9999 C53.0002,40.5529 52.5522,40.9999 52.0002,40.9999 C51.4472,40.9999 51.0002,40.5529 51.0002,39.9999 C51.0002,39.4479 51.4472,38.9999 52.0002,38.9999" id="Fill-78" fill="#0000FF"></path>
                <path d="M49,36 C49.552,36 50,36.448 50,37 C50,37.552 49.552,38 49,38 C48.447,38 48,37.552 48,37 C48,36.448 48.447,36 49,36" id="Fill-80" fill="#0000FF"></path>
                <path d="M46,39 C46.552,39 47,39.448 47,40 C47,40.552 46.552,41 46,41 C45.447,41 45,40.552 45,40 C45,39.448 45.447,39 46,39" id="Fill-80-Copy" fill="#0000FF"></path>
                <path d="M46,45 C46.552,45 47,45.448 47,46 C47,46.552 46.552,47 46,47 C45.447,47 45,46.552 45,46 C45,45.448 45.447,45 46,45" id="Fill-80-Copy-2" fill="#0000FF"></path>
                <path d="M55.0002,35.9999 C55.5522,35.9999 56.0002,36.4479 56.0002,36.9999 C56.0002,37.5519 55.5522,37.9999 55.0002,37.9999 C54.4472,37.9999 54.0002,37.5519 54.0002,36.9999 C54.0002,36.4479 54.4472,35.9999 55.0002,35.9999" id="Fill-82" fill="#0000FF"></path>
                <path d="M49.0002,41.9999 C49.5522,41.9999 50.0002,42.4479 50.0002,42.9999 C50.0002,43.5529 49.5522,43.9999 49.0002,43.9999 C48.4472,43.9999 48.0002,43.5529 48.0002,42.9999 C48.0002,42.4479 48.4472,41.9999 49.0002,41.9999" id="Fill-84" fill="#0000FF"></path>
                <path d="M55.0002,41.9999 C55.5522,41.9999 56.0002,42.4479 56.0002,42.9999 C56.0002,43.5529 55.5522,43.9999 55.0002,43.9999 C54.4472,43.9999 54.0002,43.5529 54.0002,42.9999 C54.0002,42.4479 54.4472,41.9999 55.0002,41.9999" id="Fill-86" fill="#0000FF"></path>
                <path d="M72.9997,35.9999 C73.5527,35.9999 73.9997,36.4479 73.9997,36.9999 C73.9997,37.5519 73.5527,37.9999 72.9997,37.9999 C72.4477,37.9999 71.9997,37.5519 71.9997,36.9999 C71.9997,36.4479 72.4477,35.9999 72.9997,35.9999" id="Fill-88" fill="#0000FF"></path>
                <path d="M72.9997,41.9999 C73.5527,41.9999 73.9997,42.4479 73.9997,42.9999 C73.9997,43.5529 73.5527,43.9999 72.9997,43.9999 C72.4477,43.9999 71.9997,43.5529 71.9997,42.9999 C71.9997,42.4479 72.4477,41.9999 72.9997,41.9999" id="Fill-90" fill="#0000FF"></path>
                <path d="M75.9997,38.9999 C76.5527,38.9999 76.9997,39.4479 76.9997,39.9999 C76.9997,40.5529 76.5527,40.9999 75.9997,40.9999 C75.4477,40.9999 74.9997,40.5529 74.9997,39.9999 C74.9997,39.4479 75.4477,38.9999 75.9997,38.9999" id="Fill-92" fill="#0000FF"></path>
                <path d="M81.9997,38.9999 C82.5527,38.9999 82.9997,39.4479 82.9997,39.9999 C82.9997,40.5529 82.5527,40.9999 81.9997,40.9999 C81.4477,40.9999 80.9997,40.5529 80.9997,39.9999 C80.9997,39.4479 81.4477,38.9999 81.9997,38.9999" id="Fill-94" fill="#0000FF"></path>
                <path d="M63.9997,44.9999 C64.5527,44.9999 64.9997,45.4479 64.9997,45.9999 C64.9997,46.5529 64.5527,46.9999 63.9997,46.9999 C63.4477,46.9999 62.9997,46.5529 62.9997,45.9999 C62.9997,45.4479 63.4477,44.9999 63.9997,44.9999" id="Fill-96" fill="#0000FF"></path>
                <path d="M69.9997,44.9999 C70.5527,44.9999 70.9997,45.4479 70.9997,45.9999 C70.9997,46.5529 70.5527,46.9999 69.9997,46.9999 C69.4477,46.9999 68.9997,46.5529 68.9997,45.9999 C68.9997,45.4479 69.4477,44.9999 69.9997,44.9999" id="Fill-98" fill="#0000FF"></path>
                <path d="M58.0002,44.9999 C58.5522,44.9999 59.0002,45.4479 59.0002,45.9999 C59.0002,46.5529 58.5522,46.9999 58.0002,46.9999 C57.4472,46.9999 57.0002,46.5529 57.0002,45.9999 C57.0002,45.4479 57.4472,44.9999 58.0002,44.9999" id="Fill-100" fill="#0000FF"></path>
                <path d="M52.0002,44.9999 C52.5522,44.9999 53.0002,45.4479 53.0002,45.9999 C53.0002,46.5529 52.5522,46.9999 52.0002,46.9999 C51.4472,46.9999 51.0002,46.5529 51.0002,45.9999 C51.0002,45.4479 51.4472,44.9999 52.0002,44.9999" id="Fill-102" fill="#0000FF"></path>
                <path d="M75.9997,44.9999 C76.5527,44.9999 76.9997,45.4479 76.9997,45.9999 C76.9997,46.5529 76.5527,46.9999 75.9997,46.9999 C75.4477,46.9999 74.9997,46.5529 74.9997,45.9999 C74.9997,45.4479 75.4477,44.9999 75.9997,44.9999" id="Fill-104" fill="#0000FF"></path>
                <path d="M81.9997,44.9999 C82.5527,44.9999 82.9997,45.4479 82.9997,45.9999 C82.9997,46.5529 82.5527,46.9999 81.9997,46.9999 C81.4477,46.9999 80.9997,46.5529 80.9997,45.9999 C80.9997,45.4479 81.4477,44.9999 81.9997,44.9999" id="Fill-106" fill="#0000FF"></path>
                <path d="M78.9997,35.9999 C79.5527,35.9999 79.9997,36.4479 79.9997,36.9999 C79.9997,37.5519 79.5527,37.9999 78.9997,37.9999 C78.4477,37.9999 77.9997,37.5519 77.9997,36.9999 C77.9997,36.4479 78.4477,35.9999 78.9997,35.9999" id="Fill-108" fill="#0000FF"></path>
                <path d="M84.9997,35.9999 C85.5527,35.9999 85.9997,36.4479 85.9997,36.9999 C85.9997,37.5519 85.5527,37.9999 84.9997,37.9999 C84.4477,37.9999 83.9997,37.5519 83.9997,36.9999 C83.9997,36.4479 84.4477,35.9999 84.9997,35.9999" id="Fill-110" fill="#0000FF"></path>
                <path d="M78.9997,41.9999 C79.5527,41.9999 79.9997,42.4479 79.9997,42.9999 C79.9997,43.5529 79.5527,43.9999 78.9997,43.9999 C78.4477,43.9999 77.9997,43.5529 77.9997,42.9999 C77.9997,42.4479 78.4477,41.9999 78.9997,41.9999" id="Fill-112" fill="#0000FF"></path>
                <path d="M84.9997,41.9999 C85.5527,41.9999 85.9997,42.4479 85.9997,42.9999 C85.9997,43.5529 85.5527,43.9999 84.9997,43.9999 C84.4477,43.9999 83.9997,43.5529 83.9997,42.9999 C83.9997,42.4479 84.4477,41.9999 84.9997,41.9999" id="Fill-114" fill="#0000FF"></path>
                <path d="M33.9997,20.9999 C34.5527,20.9999 34.9997,21.4479 34.9997,21.9999 C34.9997,22.5529 34.5527,22.9999 33.9997,22.9999 C33.4477,22.9999 32.9997,22.5529 32.9997,21.9999 C32.9997,21.4479 33.4477,20.9999 33.9997,20.9999" id="Fill-104" fill="#0000FF"></path>
                <path d="M39.9997,20.9999 C40.5527,20.9999 40.9997,21.4479 40.9997,21.9999 C40.9997,22.5529 40.5527,22.9999 39.9997,22.9999 C39.4477,22.9999 38.9997,22.5529 38.9997,21.9999 C38.9997,21.4479 39.4477,20.9999 39.9997,20.9999" id="Fill-106" fill="#0000FF"></path>
                <path d="M42.9997,17.9999 C43.5527,17.9999 43.9997,18.4479 43.9997,18.9999 C43.9997,19.5529 43.5527,19.9999 42.9997,19.9999 C42.4477,19.9999 41.9997,19.5529 41.9997,18.9999 C41.9997,18.4479 42.4477,17.9999 42.9997,17.9999" id="Fill-114" fill="#0000FF"></path>
                <path d="M69.9997,8.9999 C70.5527,8.9999 70.9997,9.4479 70.9997,9.9999 C70.9997,10.5519 70.5527,10.9999 69.9997,10.9999 C69.4477,10.9999 68.9997,10.5519 68.9997,9.9999 C68.9997,9.4479 69.4477,8.9999 69.9997,8.9999" id="Fill-42" fill="#0000FF"></path>
                <path d="M75.9997,8.9999 C76.5527,8.9999 76.9997,9.4479 76.9997,9.9999 C76.9997,10.5519 76.5527,10.9999 75.9997,10.9999 C75.4477,10.9999 74.9997,10.5519 74.9997,9.9999 C74.9997,9.4479 75.4477,8.9999 75.9997,8.9999" id="Fill-50" fill="#0000FF"></path>
                <path d="M81.9997,8.9999 C82.5527,8.9999 82.9997,9.4479 82.9997,9.9999 C82.9997,10.5519 82.5527,10.9999 81.9997,10.9999 C81.4477,10.9999 80.9997,10.5519 80.9997,9.9999 C80.9997,9.4479 81.4477,8.9999 81.9997,8.9999" id="Fill-52" fill="#0000FF"></path>
                <path d="M78.9997,5.9999 C79.5527,5.9999 79.9997,6.4479 79.9997,6.9999 C79.9997,7.5519 79.5527,7.9999 78.9997,7.9999 C78.4477,7.9999 77.9997,7.5519 77.9997,6.9999 C77.9997,6.4479 78.4477,5.9999 78.9997,5.9999" id="Fill-60" fill="#0000FF"></path>
                <path d="M84.9997,5.9999 C85.5527,5.9999 85.9997,6.4479 85.9997,6.9999 C85.9997,7.5519 85.5527,7.9999 84.9997,7.9999 C84.4477,7.9999 83.9997,7.5519 83.9997,6.9999 C83.9997,6.4479 84.4477,5.9999 84.9997,5.9999" id="Fill-62" fill="#0000FF"></path>
                <path d="M63.9997,14.9999 C64.5527,14.9999 64.9997,15.4479 64.9997,15.9999 C64.9997,16.5529 64.5527,16.9999 63.9997,16.9999 C63.4477,16.9999 62.9997,16.5529 62.9997,15.9999 C62.9997,15.4479 63.4477,14.9999 63.9997,14.9999" id="Fill-64" fill="#0000FF"></path>
                <path d="M66.9997,11.9999 C67.5527,11.9999 67.9997,12.4479 67.9997,12.9999 C67.9997,13.5519 67.5527,13.9999 66.9997,13.9999 C66.4477,13.9999 65.9997,13.5519 65.9997,12.9999 C65.9997,12.4479 66.4477,11.9999 66.9997,11.9999" id="Fill-66" fill="#0000FF"></path>
                <path d="M66.9997,17.9999 C67.5527,17.9999 67.9997,18.4479 67.9997,18.9999 C67.9997,19.5529 67.5527,19.9999 66.9997,19.9999 C66.4477,19.9999 65.9997,19.5529 65.9997,18.9999 C65.9997,18.4479 66.4477,17.9999 66.9997,17.9999" id="Fill-68" fill="#0000FF"></path>
                <path d="M69.9997,14.9999 C70.5527,14.9999 70.9997,15.4479 70.9997,15.9999 C70.9997,16.5529 70.5527,16.9999 69.9997,16.9999 C69.4477,16.9999 68.9997,16.5529 68.9997,15.9999 C68.9997,15.4479 69.4477,14.9999 69.9997,14.9999" id="Fill-70" fill="#0000FF"></path>
                <path d="M58.0002,14.9999 C58.5522,14.9999 59.0002,15.4479 59.0002,15.9999 C59.0002,16.5529 58.5522,16.9999 58.0002,16.9999 C57.4472,16.9999 57.0002,16.5529 57.0002,15.9999 C57.0002,15.4479 57.4472,14.9999 58.0002,14.9999" id="Fill-72" fill="#0000FF"></path>
                <path d="M60.9997,11.9999 C61.5527,11.9999 61.9997,12.4479 61.9997,12.9999 C61.9997,13.5519 61.5527,13.9999 60.9997,13.9999 C60.4477,13.9999 59.9997,13.5519 59.9997,12.9999 C59.9997,12.4479 60.4477,11.9999 60.9997,11.9999" id="Fill-74" fill="#0000FF"></path>
                <path d="M60.9997,17.9999 C61.5527,17.9999 61.9997,18.4479 61.9997,18.9999 C61.9997,19.5529 61.5527,19.9999 60.9997,19.9999 C60.4477,19.9999 59.9997,19.5529 59.9997,18.9999 C59.9997,18.4479 60.4477,17.9999 60.9997,17.9999" id="Fill-76" fill="#0000FF"></path>
                <path d="M52.0002,14.9999 C52.5522,14.9999 53.0002,15.4479 53.0002,15.9999 C53.0002,16.5529 52.5522,16.9999 52.0002,16.9999 C51.4472,16.9999 51.0002,16.5529 51.0002,15.9999 C51.0002,15.4479 51.4472,14.9999 52.0002,14.9999" id="Fill-78" fill="#0000FF"></path>
                <path d="M46,21 C46.552,21 47,21.448 47,22 C47,22.552 46.552,23 46,23 C45.447,23 45,22.552 45,22 C45,21.448 45.447,21 46,21" id="Fill-80-Copy-2" fill="#0000FF"></path>
                <path d="M49.0002,17.9999 C49.5522,17.9999 50.0002,18.4479 50.0002,18.9999 C50.0002,19.5529 49.5522,19.9999 49.0002,19.9999 C48.4472,19.9999 48.0002,19.5529 48.0002,18.9999 C48.0002,18.4479 48.4472,17.9999 49.0002,17.9999" id="Fill-84" fill="#0000FF"></path>
                <path d="M55.0002,17.9999 C55.5522,17.9999 56.0002,18.4479 56.0002,18.9999 C56.0002,19.5529 55.5522,19.9999 55.0002,19.9999 C54.4472,19.9999 54.0002,19.5529 54.0002,18.9999 C54.0002,18.4479 54.4472,17.9999 55.0002,17.9999" id="Fill-86" fill="#0000FF"></path>
                <path d="M72.9997,11.9999 C73.5527,11.9999 73.9997,12.4479 73.9997,12.9999 C73.9997,13.5519 73.5527,13.9999 72.9997,13.9999 C72.4477,13.9999 71.9997,13.5519 71.9997,12.9999 C71.9997,12.4479 72.4477,11.9999 72.9997,11.9999" id="Fill-88" fill="#0000FF"></path>
                <path d="M72.9997,17.9999 C73.5527,17.9999 73.9997,18.4479 73.9997,18.9999 C73.9997,19.5529 73.5527,19.9999 72.9997,19.9999 C72.4477,19.9999 71.9997,19.5529 71.9997,18.9999 C71.9997,18.4479 72.4477,17.9999 72.9997,17.9999" id="Fill-90" fill="#0000FF"></path>
                <path d="M75.9997,14.9999 C76.5527,14.9999 76.9997,15.4479 76.9997,15.9999 C76.9997,16.5529 76.5527,16.9999 75.9997,16.9999 C75.4477,16.9999 74.9997,16.5529 74.9997,15.9999 C74.9997,15.4479 75.4477,14.9999 75.9997,14.9999" id="Fill-92" fill="#0000FF"></path>
                <path d="M81.9997,14.9999 C82.5527,14.9999 82.9997,15.4479 82.9997,15.9999 C82.9997,16.5529 82.5527,16.9999 81.9997,16.9999 C81.4477,16.9999 80.9997,16.5529 80.9997,15.9999 C80.9997,15.4479 81.4477,14.9999 81.9997,14.9999" id="Fill-94" fill="#0000FF"></path>
                <path d="M63.9997,20.9999 C64.5527,20.9999 64.9997,21.4479 64.9997,21.9999 C64.9997,22.5529 64.5527,22.9999 63.9997,22.9999 C63.4477,22.9999 62.9997,22.5529 62.9997,21.9999 C62.9997,21.4479 63.4477,20.9999 63.9997,20.9999" id="Fill-96" fill="#0000FF"></path>
                <path d="M69.9997,20.9999 C70.5527,20.9999 70.9997,21.4479 70.9997,21.9999 C70.9997,22.5529 70.5527,22.9999 69.9997,22.9999 C69.4477,22.9999 68.9997,22.5529 68.9997,21.9999 C68.9997,21.4479 69.4477,20.9999 69.9997,20.9999" id="Fill-98" fill="#0000FF"></path>
                <path d="M58.0002,20.9999 C58.5522,20.9999 59.0002,21.4479 59.0002,21.9999 C59.0002,22.5529 58.5522,22.9999 58.0002,22.9999 C57.4472,22.9999 57.0002,22.5529 57.0002,21.9999 C57.0002,21.4479 57.4472,20.9999 58.0002,20.9999" id="Fill-100" fill="#0000FF"></path>
                <path d="M52.0002,20.9999 C52.5522,20.9999 53.0002,21.4479 53.0002,21.9999 C53.0002,22.5529 52.5522,22.9999 52.0002,22.9999 C51.4472,22.9999 51.0002,22.5529 51.0002,21.9999 C51.0002,21.4479 51.4472,20.9999 52.0002,20.9999" id="Fill-102" fill="#0000FF"></path>
                <path d="M75.9997,20.9999 C76.5527,20.9999 76.9997,21.4479 76.9997,21.9999 C76.9997,22.5529 76.5527,22.9999 75.9997,22.9999 C75.4477,22.9999 74.9997,22.5529 74.9997,21.9999 C74.9997,21.4479 75.4477,20.9999 75.9997,20.9999" id="Fill-104" fill="#0000FF"></path>
                <path d="M81.9997,20.9999 C82.5527,20.9999 82.9997,21.4479 82.9997,21.9999 C82.9997,22.5529 82.5527,22.9999 81.9997,22.9999 C81.4477,22.9999 80.9997,22.5529 80.9997,21.9999 C80.9997,21.4479 81.4477,20.9999 81.9997,20.9999" id="Fill-106" fill="#0000FF"></path>
                <path d="M78.9997,11.9999 C79.5527,11.9999 79.9997,12.4479 79.9997,12.9999 C79.9997,13.5519 79.5527,13.9999 78.9997,13.9999 C78.4477,13.9999 77.9997,13.5519 77.9997,12.9999 C77.9997,12.4479 78.4477,11.9999 78.9997,11.9999" id="Fill-108" fill="#0000FF"></path>
                <path d="M84.9997,11.9999 C85.5527,11.9999 85.9997,12.4479 85.9997,12.9999 C85.9997,13.5519 85.5527,13.9999 84.9997,13.9999 C84.4477,13.9999 83.9997,13.5519 83.9997,12.9999 C83.9997,12.4479 84.4477,11.9999 84.9997,11.9999" id="Fill-110" fill="#0000FF"></path>
                <path d="M78.9997,17.9999 C79.5527,17.9999 79.9997,18.4479 79.9997,18.9999 C79.9997,19.5529 79.5527,19.9999 78.9997,19.9999 C78.4477,19.9999 77.9997,19.5529 77.9997,18.9999 C77.9997,18.4479 78.4477,17.9999 78.9997,17.9999" id="Fill-112" fill="#0000FF"></path>
                <path d="M84.9997,17.9999 C85.5527,17.9999 85.9997,18.4479 85.9997,18.9999 C85.9997,19.5529 85.5527,19.9999 84.9997,19.9999 C84.4477,19.9999 83.9997,19.5529 83.9997,18.9999 C83.9997,18.4479 84.4477,17.9999 84.9997,17.9999" id="Fill-114" fill="#0000FF"></path>
            </g>
        </g>
    </g>
</svg>