<?xml version="1.0" encoding="UTF-8"?>
<svg width="90px" height="60px" viewBox="0 0 90 60" version="1.1" xmlns="http://www.w3.org/2000/svg" xmlns:xlink="http://www.w3.org/1999/xlink">
    <!-- Generator: Sketch 48.2 (47327) - http://www.bohemiancoding.com/sketch -->
    <title>Group 4</title>
    <desc>Created with Sketch.</desc>
    <defs></defs>
    <g id="Start-a-Pool" stroke="none" stroke-width="1" fill="none" fill-rule="evenodd" transform="translate(-36.000000, -428.000000)">
        <g id="Group-4" transform="translate(37.000000, 428.000000)">
            <polyline id="Path-4" stroke="#0000FF" points="0 0 0 58.8113849 88.6709223 58.8113849"></polyline>
            <path d="M0,29.5 L88.7562763,29.5" id="Path-5" stroke="#0000FF"></path>
            <g id="Group-2" transform="translate(3.000000, 33.000000)" fill="#0000FF">
                <path d="M18.9997,2.9999 C19.5527,2.9999 19.9997,3.4479 19.9997,3.9999 C19.9997,4.5519 19.5527,4.9999 18.9997,4.9999 C18.4477,4.9999 17.9997,4.5519 17.9997,3.9999 C17.9997,3.4479 18.4477,2.9999 18.9997,2.9999" id="Fill-1"></path>
                <path d="M21.9997,-0.0001 C22.5527,-0.0001 22.9997,0.4479 22.9997,0.9999 C22.9997,1.5519 22.5527,1.9999 21.9997,1.9999 C21.4477,1.9999 20.9997,1.5519 20.9997,0.9999 C20.9997,0.4479 21.4477,-0.0001 21.9997,-0.0001" id="Fill-3"></path>
                <path d="M21.9997,5.9999 C22.5527,5.9999 22.9997,6.4479 22.9997,6.9999 C22.9997,7.5519 22.5527,7.9999 21.9997,7.9999 C21.4477,7.9999 20.9997,7.5519 20.9997,6.9999 C20.9997,6.4479 21.4477,5.9999 21.9997,5.9999" id="Fill-6"></path>
                <path d="M24.9997,2.9999 C25.5527,2.9999 25.9997,3.4479 25.9997,3.9999 C25.9997,4.5519 25.5527,4.9999 24.9997,4.9999 C24.4477,4.9999 23.9997,4.5519 23.9997,3.9999 C23.9997,3.4479 24.4477,2.9999 24.9997,2.9999" id="Fill-8"></path>
                <path d="M13.0002,2.9999 C13.5522,2.9999 14.0002,3.4479 14.0002,3.9999 C14.0002,4.5519 13.5522,4.9999 13.0002,4.9999 C12.4472,4.9999 12.0002,4.5519 12.0002,3.9999 C12.0002,3.4479 12.4472,2.9999 13.0002,2.9999" id="Fill-10"></path>
                <path d="M15.9997,-0.0001 C16.5527,-0.0001 16.9997,0.4479 16.9997,0.9999 C16.9997,1.5519 16.5527,1.9999 15.9997,1.9999 C15.4477,1.9999 14.9997,1.5519 14.9997,0.9999 C14.9997,0.4479 15.4477,-0.0001 15.9997,-0.0001" id="Fill-12"></path>
                <path d="M15.9997,5.9999 C16.5527,5.9999 16.9997,6.4479 16.9997,6.9999 C16.9997,7.5519 16.5527,7.9999 15.9997,7.9999 C15.4477,7.9999 14.9997,7.5519 14.9997,6.9999 C14.9997,6.4479 15.4477,5.9999 15.9997,5.9999" id="Fill-15"></path>
                <path d="M1.0002,2.9999 C1.5522,2.9999 2.0002,3.4479 2.0002,3.9999 C2.0002,4.5519 1.5522,4.9999 1.0002,4.9999 C0.4472,4.9999 0.0002,4.5519 0.0002,3.9999 C0.0002,3.4479 0.4472,2.9999 1.0002,2.9999" id="Fill-17"></path>
                <path d="M7.0002,2.9999 C7.5522,2.9999 8.0002,3.4479 8.0002,3.9999 C8.0002,4.5519 7.5522,4.9999 7.0002,4.9999 C6.4472,4.9999 6.0002,4.5519 6.0002,3.9999 C6.0002,3.4479 6.4472,2.9999 7.0002,2.9999" id="Fill-19"></path>
                <path d="M4.0002,-0.0001 C4.5522,-0.0001 5.0002,0.4479 5.0002,0.9999 C5.0002,1.5519 4.5522,1.9999 4.0002,1.9999 C3.4472,1.9999 3.0002,1.5519 3.0002,0.9999 C3.0002,0.4479 3.4472,-0.0001 4.0002,-0.0001" id="Fill-21"></path>
                <path d="M10.0002,-0.0001 C10.5522,-0.0001 11.0002,0.4479 11.0002,0.9999 C11.0002,1.5519 10.5522,1.9999 10.0002,1.9999 C9.4472,1.9999 9.0002,1.5519 9.0002,0.9999 C9.0002,0.4479 9.4472,-0.0001 10.0002,-0.0001" id="Fill-24"></path>
                <path d="M4.0002,5.9999 C4.5522,5.9999 5.0002,6.4479 5.0002,6.9999 C5.0002,7.5519 4.5522,7.9999 4.0002,7.9999 C3.4472,7.9999 3.0002,7.5519 3.0002,6.9999 C3.0002,6.4479 3.4472,5.9999 4.0002,5.9999" id="Fill-27"></path>
                <path d="M10.0002,5.9999 C10.5522,5.9999 11.0002,6.4479 11.0002,6.9999 C11.0002,7.5519 10.5522,7.9999 10.0002,7.9999 C9.4472,7.9999 9.0002,7.5519 9.0002,6.9999 C9.0002,6.4479 9.4472,5.9999 10.0002,5.9999" id="Fill-29"></path>
                <path d="M27.9997,-0.0001 C28.5527,-0.0001 28.9997,0.4479 28.9997,0.9999 C28.9997,1.5519 28.5527,1.9999 27.9997,1.9999 C27.4477,1.9999 26.9997,1.5519 26.9997,0.9999 C26.9997,0.4479 27.4477,-0.0001 27.9997,-0.0001" id="Fill-31"></path>
                <path d="M27.9997,5.9999 C28.5527,5.9999 28.9997,6.4479 28.9997,6.9999 C28.9997,7.5519 28.5527,7.9999 27.9997,7.9999 C27.4477,7.9999 26.9997,7.5519 26.9997,6.9999 C26.9997,6.4479 27.4477,5.9999 27.9997,5.9999" id="Fill-34"></path>
                <path d="M30.9997,2.9999 C31.5527,2.9999 31.9997,3.4479 31.9997,3.9999 C31.9997,4.5519 31.5527,4.9999 30.9997,4.9999 C30.4477,4.9999 29.9997,4.5519 29.9997,3.9999 C29.9997,3.4479 30.4477,2.9999 30.9997,2.9999" id="Fill-36"></path>
                <path d="M36.9997,2.9999 C37.5527,2.9999 37.9997,3.4479 37.9997,3.9999 C37.9997,4.5519 37.5527,4.9999 36.9997,4.9999 C36.4477,4.9999 35.9997,4.5519 35.9997,3.9999 C35.9997,3.4479 36.4477,2.9999 36.9997,2.9999" id="Fill-38"></path>
                <path d="M18.9997,8.9999 C19.5527,8.9999 19.9997,9.4479 19.9997,9.9999 C19.9997,10.5519 19.5527,10.9999 18.9997,10.9999 C18.4477,10.9999 17.9997,10.5519 17.9997,9.9999 C17.9997,9.4479 18.4477,8.9999 18.9997,8.9999" id="Fill-40"></path>
                <path d="M24.9997,8.9999 C25.5527,8.9999 25.9997,9.4479 25.9997,9.9999 C25.9997,10.5519 25.5527,10.9999 24.9997,10.9999 C24.4477,10.9999 23.9997,10.5519 23.9997,9.9999 C23.9997,9.4479 24.4477,8.9999 24.9997,8.9999" id="Fill-42"></path>
                <path d="M13.0002,8.9999 C13.5522,8.9999 14.0002,9.4479 14.0002,9.9999 C14.0002,10.5519 13.5522,10.9999 13.0002,10.9999 C12.4472,10.9999 12.0002,10.5519 12.0002,9.9999 C12.0002,9.4479 12.4472,8.9999 13.0002,8.9999" id="Fill-44"></path>
                <path d="M1.0002,8.9999 C1.5522,8.9999 2.0002,9.4479 2.0002,9.9999 C2.0002,10.5519 1.5522,10.9999 1.0002,10.9999 C0.4472,10.9999 0.0002,10.5519 0.0002,9.9999 C0.0002,9.4479 0.4472,8.9999 1.0002,8.9999" id="Fill-46"></path>
                <path d="M7.0002,8.9999 C7.5522,8.9999 8.0002,9.4479 8.0002,9.9999 C8.0002,10.5519 7.5522,10.9999 7.0002,10.9999 C6.4472,10.9999 6.0002,10.5519 6.0002,9.9999 C6.0002,9.4479 6.4472,8.9999 7.0002,8.9999" id="Fill-48"></path>
                <path d="M30.9997,8.9999 C31.5527,8.9999 31.9997,9.4479 31.9997,9.9999 C31.9997,10.5519 31.5527,10.9999 30.9997,10.9999 C30.4477,10.9999 29.9997,10.5519 29.9997,9.9999 C29.9997,9.4479 30.4477,8.9999 30.9997,8.9999" id="Fill-50"></path>
                <path d="M36.9997,8.9999 C37.5527,8.9999 37.9997,9.4479 37.9997,9.9999 C37.9997,10.5519 37.5527,10.9999 36.9997,10.9999 C36.4477,10.9999 35.9997,10.5519 35.9997,9.9999 C35.9997,9.4479 36.4477,8.9999 36.9997,8.9999" id="Fill-52"></path>
                <path d="M33.9997,-0.0001 C34.5527,-0.0001 34.9997,0.4479 34.9997,0.9999 C34.9997,1.5519 34.5527,1.9999 33.9997,1.9999 C33.4477,1.9999 32.9997,1.5519 32.9997,0.9999 C32.9997,0.4479 33.4477,-0.0001 33.9997,-0.0001" id="Fill-54"></path>
                <path d="M39.9997,-0.0001 C40.5527,-0.0001 40.9997,0.4479 40.9997,0.9999 C40.9997,1.5519 40.5527,1.9999 39.9997,1.9999 C39.4477,1.9999 38.9997,1.5519 38.9997,0.9999 C38.9997,0.4479 39.4477,-0.0001 39.9997,-0.0001" id="Fill-57"></path>
                <path d="M33.9997,5.9999 C34.5527,5.9999 34.9997,6.4479 34.9997,6.9999 C34.9997,7.5519 34.5527,7.9999 33.9997,7.9999 C33.4477,7.9999 32.9997,7.5519 32.9997,6.9999 C32.9997,6.4479 33.4477,5.9999 33.9997,5.9999" id="Fill-60"></path>
                <path d="M39.9997,5.9999 C40.5527,5.9999 40.9997,6.4479 40.9997,6.9999 C40.9997,7.5519 40.5527,7.9999 39.9997,7.9999 C39.4477,7.9999 38.9997,7.5519 38.9997,6.9999 C38.9997,6.4479 39.4477,5.9999 39.9997,5.9999" id="Fill-62"></path>
                <path d="M18.9997,14.9999 C19.5527,14.9999 19.9997,15.4479 19.9997,15.9999 C19.9997,16.5529 19.5527,16.9999 18.9997,16.9999 C18.4477,16.9999 17.9997,16.5529 17.9997,15.9999 C17.9997,15.4479 18.4477,14.9999 18.9997,14.9999" id="Fill-64"></path>
                <path d="M21.9997,11.9999 C22.5527,11.9999 22.9997,12.4479 22.9997,12.9999 C22.9997,13.5519 22.5527,13.9999 21.9997,13.9999 C21.4477,13.9999 20.9997,13.5519 20.9997,12.9999 C20.9997,12.4479 21.4477,11.9999 21.9997,11.9999" id="Fill-66"></path>
                <path d="M21.9997,17.9999 C22.5527,17.9999 22.9997,18.4479 22.9997,18.9999 C22.9997,19.5529 22.5527,19.9999 21.9997,19.9999 C21.4477,19.9999 20.9997,19.5529 20.9997,18.9999 C20.9997,18.4479 21.4477,17.9999 21.9997,17.9999" id="Fill-68"></path>
                <path d="M24.9997,14.9999 C25.5527,14.9999 25.9997,15.4479 25.9997,15.9999 C25.9997,16.5529 25.5527,16.9999 24.9997,16.9999 C24.4477,16.9999 23.9997,16.5529 23.9997,15.9999 C23.9997,15.4479 24.4477,14.9999 24.9997,14.9999" id="Fill-70"></path>
                <path d="M13.0002,14.9999 C13.5522,14.9999 14.0002,15.4479 14.0002,15.9999 C14.0002,16.5529 13.5522,16.9999 13.0002,16.9999 C12.4472,16.9999 12.0002,16.5529 12.0002,15.9999 C12.0002,15.4479 12.4472,14.9999 13.0002,14.9999" id="Fill-72"></path>
                <path d="M15.9997,11.9999 C16.5527,11.9999 16.9997,12.4479 16.9997,12.9999 C16.9997,13.5519 16.5527,13.9999 15.9997,13.9999 C15.4477,13.9999 14.9997,13.5519 14.9997,12.9999 C14.9997,12.4479 15.4477,11.9999 15.9997,11.9999" id="Fill-74"></path>
                <path d="M15.9997,17.9999 C16.5527,17.9999 16.9997,18.4479 16.9997,18.9999 C16.9997,19.5529 16.5527,19.9999 15.9997,19.9999 C15.4477,19.9999 14.9997,19.5529 14.9997,18.9999 C14.9997,18.4479 15.4477,17.9999 15.9997,17.9999" id="Fill-76"></path>
                <path d="M7.0002,14.9999 C7.5522,14.9999 8.0002,15.4479 8.0002,15.9999 C8.0002,16.5529 7.5522,16.9999 7.0002,16.9999 C6.4472,16.9999 6.0002,16.5529 6.0002,15.9999 C6.0002,15.4479 6.4472,14.9999 7.0002,14.9999" id="Fill-78"></path>
                <path d="M4,12 C4.552,12 5,12.448 5,13 C5,13.552 4.552,14 4,14 C3.447,14 3,13.552 3,13 C3,12.448 3.447,12 4,12" id="Fill-80"></path>
                <path d="M1,15 C1.552,15 2,15.448 2,16 C2,16.552 1.552,17 1,17 C0.447,17 0,16.552 0,16 C0,15.448 0.447,15 1,15" id="Fill-80-Copy"></path>
                <path d="M1,21 C1.552,21 2,21.448 2,22 C2,22.552 1.552,23 1,23 C0.447,23 0,22.552 0,22 C0,21.448 0.447,21 1,21" id="Fill-80-Copy-2"></path>
                <path d="M10.0002,11.9999 C10.5522,11.9999 11.0002,12.4479 11.0002,12.9999 C11.0002,13.5519 10.5522,13.9999 10.0002,13.9999 C9.4472,13.9999 9.0002,13.5519 9.0002,12.9999 C9.0002,12.4479 9.4472,11.9999 10.0002,11.9999" id="Fill-82"></path>
                <path d="M4.0002,17.9999 C4.5522,17.9999 5.0002,18.4479 5.0002,18.9999 C5.0002,19.5529 4.5522,19.9999 4.0002,19.9999 C3.4472,19.9999 3.0002,19.5529 3.0002,18.9999 C3.0002,18.4479 3.4472,17.9999 4.0002,17.9999" id="Fill-84"></path>
                <path d="M10.0002,17.9999 C10.5522,17.9999 11.0002,18.4479 11.0002,18.9999 C11.0002,19.5529 10.5522,19.9999 10.0002,19.9999 C9.4472,19.9999 9.0002,19.5529 9.0002,18.9999 C9.0002,18.4479 9.4472,17.9999 10.0002,17.9999" id="Fill-86"></path>
                <path d="M27.9997,11.9999 C28.5527,11.9999 28.9997,12.4479 28.9997,12.9999 C28.9997,13.5519 28.5527,13.9999 27.9997,13.9999 C27.4477,13.9999 26.9997,13.5519 26.9997,12.9999 C26.9997,12.4479 27.4477,11.9999 27.9997,11.9999" id="Fill-88"></path>
                <path d="M27.9997,17.9999 C28.5527,17.9999 28.9997,18.4479 28.9997,18.9999 C28.9997,19.5529 28.5527,19.9999 27.9997,19.9999 C27.4477,19.9999 26.9997,19.5529 26.9997,18.9999 C26.9997,18.4479 27.4477,17.9999 27.9997,17.9999" id="Fill-90"></path>
                <path d="M30.9997,14.9999 C31.5527,14.9999 31.9997,15.4479 31.9997,15.9999 C31.9997,16.5529 31.5527,16.9999 30.9997,16.9999 C30.4477,16.9999 29.9997,16.5529 29.9997,15.9999 C29.9997,15.4479 30.4477,14.9999 30.9997,14.9999" id="Fill-92"></path>
                <path d="M36.9997,14.9999 C37.5527,14.9999 37.9997,15.4479 37.9997,15.9999 C37.9997,16.5529 37.5527,16.9999 36.9997,16.9999 C36.4477,16.9999 35.9997,16.5529 35.9997,15.9999 C35.9997,15.4479 36.4477,14.9999 36.9997,14.9999" id="Fill-94"></path>
                <path d="M18.9997,20.9999 C19.5527,20.9999 19.9997,21.4479 19.9997,21.9999 C19.9997,22.5529 19.5527,22.9999 18.9997,22.9999 C18.4477,22.9999 17.9997,22.5529 17.9997,21.9999 C17.9997,21.4479 18.4477,20.9999 18.9997,20.9999" id="Fill-96"></path>
                <path d="M24.9997,20.9999 C25.5527,20.9999 25.9997,21.4479 25.9997,21.9999 C25.9997,22.5529 25.5527,22.9999 24.9997,22.9999 C24.4477,22.9999 23.9997,22.5529 23.9997,21.9999 C23.9997,21.4479 24.4477,20.9999 24.9997,20.9999" id="Fill-98"></path>
                <path d="M13.0002,20.9999 C13.5522,20.9999 14.0002,21.4479 14.0002,21.9999 C14.0002,22.5529 13.5522,22.9999 13.0002,22.9999 C12.4472,22.9999 12.0002,22.5529 12.0002,21.9999 C12.0002,21.4479 12.4472,20.9999 13.0002,20.9999" id="Fill-100"></path>
                <path d="M7.0002,20.9999 C7.5522,20.9999 8.0002,21.4479 8.0002,21.9999 C8.0002,22.5529 7.5522,22.9999 7.0002,22.9999 C6.4472,22.9999 6.0002,22.5529 6.0002,21.9999 C6.0002,21.4479 6.4472,20.9999 7.0002,20.9999" id="Fill-102"></path>
                <path d="M30.9997,20.9999 C31.5527,20.9999 31.9997,21.4479 31.9997,21.9999 C31.9997,22.5529 31.5527,22.9999 30.9997,22.9999 C30.4477,22.9999 29.9997,22.5529 29.9997,21.9999 C29.9997,21.4479 30.4477,20.9999 30.9997,20.9999" id="Fill-104"></path>
                <path d="M36.9997,20.9999 C37.5527,20.9999 37.9997,21.4479 37.9997,21.9999 C37.9997,22.5529 37.5527,22.9999 36.9997,22.9999 C36.4477,22.9999 35.9997,22.5529 35.9997,21.9999 C35.9997,21.4479 36.4477,20.9999 36.9997,20.9999" id="Fill-106"></path>
                <path d="M33.9997,11.9999 C34.5527,11.9999 34.9997,12.4479 34.9997,12.9999 C34.9997,13.5519 34.5527,13.9999 33.9997,13.9999 C33.4477,13.9999 32.9997,13.5519 32.9997,12.9999 C32.9997,12.4479 33.4477,11.9999 33.9997,11.9999" id="Fill-108"></path>
                <path d="M39.9997,11.9999 C40.5527,11.9999 40.9997,12.4479 40.9997,12.9999 C40.9997,13.5519 40.5527,13.9999 39.9997,13.9999 C39.4477,13.9999 38.9997,13.5519 38.9997,12.9999 C38.9997,12.4479 39.4477,11.9999 39.9997,11.9999" id="Fill-110"></path>
                <path d="M33.9997,17.9999 C34.5527,17.9999 34.9997,18.4479 34.9997,18.9999 C34.9997,19.5529 34.5527,19.9999 33.9997,19.9999 C33.4477,19.9999 32.9997,19.5529 32.9997,18.9999 C32.9997,18.4479 33.4477,17.9999 33.9997,17.9999" id="Fill-112"></path>
                <path d="M39.9997,17.9999 C40.5527,17.9999 40.9997,18.4479 40.9997,18.9999 C40.9997,19.5529 40.5527,19.9999 39.9997,19.9999 C39.4477,19.9999 38.9997,19.5529 38.9997,18.9999 C38.9997,18.4479 39.4477,17.9999 39.9997,17.9999" id="Fill-114"></path>
                <path d="M60.9997,2.9999 C61.5527,2.9999 61.9997,3.4479 61.9997,3.9999 C61.9997,4.5519 61.5527,4.9999 60.9997,4.9999 C60.4477,4.9999 59.9997,4.5519 59.9997,3.9999 C59.9997,3.4479 60.4477,2.9999 60.9997,2.9999" id="Fill-1"></path>
                <path d="M63.9997,-0.0001 C64.5527,-0.0001 64.9997,0.4479 64.9997,0.9999 C64.9997,1.5519 64.5527,1.9999 63.9997,1.9999 C63.4477,1.9999 62.9997,1.5519 62.9997,0.9999 C62.9997,0.4479 63.4477,-0.0001 63.9997,-0.0001" id="Fill-3"></path>
                <path d="M63.9997,5.9999 C64.5527,5.9999 64.9997,6.4479 64.9997,6.9999 C64.9997,7.5519 64.5527,7.9999 63.9997,7.9999 C63.4477,7.9999 62.9997,7.5519 62.9997,6.9999 C62.9997,6.4479 63.4477,5.9999 63.9997,5.9999" id="Fill-6"></path>
                <path d="M66.9997,2.9999 C67.5527,2.9999 67.9997,3.4479 67.9997,3.9999 C67.9997,4.5519 67.5527,4.9999 66.9997,4.9999 C66.4477,4.9999 65.9997,4.5519 65.9997,3.9999 C65.9997,3.4479 66.4477,2.9999 66.9997,2.9999" id="Fill-8"></path>
                <path d="M55.0002,2.9999 C55.5522,2.9999 56.0002,3.4479 56.0002,3.9999 C56.0002,4.5519 55.5522,4.9999 55.0002,4.9999 C54.4472,4.9999 54.0002,4.5519 54.0002,3.9999 C54.0002,3.4479 54.4472,2.9999 55.0002,2.9999" id="Fill-10"></path>
                <path d="M57.9997,-0.0001 C58.5527,-0.0001 58.9997,0.4479 58.9997,0.9999 C58.9997,1.5519 58.5527,1.9999 57.9997,1.9999 C57.4477,1.9999 56.9997,1.5519 56.9997,0.9999 C56.9997,0.4479 57.4477,-0.0001 57.9997,-0.0001" id="Fill-12"></path>
                <path d="M57.9997,5.9999 C58.5527,5.9999 58.9997,6.4479 58.9997,6.9999 C58.9997,7.5519 58.5527,7.9999 57.9997,7.9999 C57.4477,7.9999 56.9997,7.5519 56.9997,6.9999 C56.9997,6.4479 57.4477,5.9999 57.9997,5.9999" id="Fill-15"></path>
                <path d="M43.0002,2.9999 C43.5522,2.9999 44.0002,3.4479 44.0002,3.9999 C44.0002,4.5519 43.5522,4.9999 43.0002,4.9999 C42.4472,4.9999 42.0002,4.5519 42.0002,3.9999 C42.0002,3.4479 42.4472,2.9999 43.0002,2.9999" id="Fill-17"></path>
                <path d="M49.0002,2.9999 C49.5522,2.9999 50.0002,3.4479 50.0002,3.9999 C50.0002,4.5519 49.5522,4.9999 49.0002,4.9999 C48.4472,4.9999 48.0002,4.5519 48.0002,3.9999 C48.0002,3.4479 48.4472,2.9999 49.0002,2.9999" id="Fill-19"></path>
                <path d="M46.0002,-0.0001 C46.5522,-0.0001 47.0002,0.4479 47.0002,0.9999 C47.0002,1.5519 46.5522,1.9999 46.0002,1.9999 C45.4472,1.9999 45.0002,1.5519 45.0002,0.9999 C45.0002,0.4479 45.4472,-0.0001 46.0002,-0.0001" id="Fill-21"></path>
                <path d="M52.0002,-0.0001 C52.5522,-0.0001 53.0002,0.4479 53.0002,0.9999 C53.0002,1.5519 52.5522,1.9999 52.0002,1.9999 C51.4472,1.9999 51.0002,1.5519 51.0002,0.9999 C51.0002,0.4479 51.4472,-0.0001 52.0002,-0.0001" id="Fill-24"></path>
                <path d="M46.0002,5.9999 C46.5522,5.9999 47.0002,6.4479 47.0002,6.9999 C47.0002,7.5519 46.5522,7.9999 46.0002,7.9999 C45.4472,7.9999 45.0002,7.5519 45.0002,6.9999 C45.0002,6.4479 45.4472,5.9999 46.0002,5.9999" id="Fill-27"></path>
                <path d="M52.0002,5.9999 C52.5522,5.9999 53.0002,6.4479 53.0002,6.9999 C53.0002,7.5519 52.5522,7.9999 52.0002,7.9999 C51.4472,7.9999 51.0002,7.5519 51.0002,6.9999 C51.0002,6.4479 51.4472,5.9999 52.0002,5.9999" id="Fill-29"></path>
                <path d="M69.9997,-0.0001 C70.5527,-0.0001 70.9997,0.4479 70.9997,0.9999 C70.9997,1.5519 70.5527,1.9999 69.9997,1.9999 C69.4477,1.9999 68.9997,1.5519 68.9997,0.9999 C68.9997,0.4479 69.4477,-0.0001 69.9997,-0.0001" id="Fill-31"></path>
                <path d="M69.9997,5.9999 C70.5527,5.9999 70.9997,6.4479 70.9997,6.9999 C70.9997,7.5519 70.5527,7.9999 69.9997,7.9999 C69.4477,7.9999 68.9997,7.5519 68.9997,6.9999 C68.9997,6.4479 69.4477,5.9999 69.9997,5.9999" id="Fill-34"></path>
                <path d="M72.9997,2.9999 C73.5527,2.9999 73.9997,3.4479 73.9997,3.9999 C73.9997,4.5519 73.5527,4.9999 72.9997,4.9999 C72.4477,4.9999 71.9997,4.5519 71.9997,3.9999 C71.9997,3.4479 72.4477,2.9999 72.9997,2.9999" id="Fill-36"></path>
                <path d="M78.9997,2.9999 C79.5527,2.9999 79.9997,3.4479 79.9997,3.9999 C79.9997,4.5519 79.5527,4.9999 78.9997,4.9999 C78.4477,4.9999 77.9997,4.5519 77.9997,3.9999 C77.9997,3.4479 78.4477,2.9999 78.9997,2.9999" id="Fill-38"></path>
                <path d="M60.9997,8.9999 C61.5527,8.9999 61.9997,9.4479 61.9997,9.9999 C61.9997,10.5519 61.5527,10.9999 60.9997,10.9999 C60.4477,10.9999 59.9997,10.5519 59.9997,9.9999 C59.9997,9.4479 60.4477,8.9999 60.9997,8.9999" id="Fill-40"></path>
                <path d="M66.9997,8.9999 C67.5527,8.9999 67.9997,9.4479 67.9997,9.9999 C67.9997,10.5519 67.5527,10.9999 66.9997,10.9999 C66.4477,10.9999 65.9997,10.5519 65.9997,9.9999 C65.9997,9.4479 66.4477,8.9999 66.9997,8.9999" id="Fill-42"></path>
                <path d="M55.0002,8.9999 C55.5522,8.9999 56.0002,9.4479 56.0002,9.9999 C56.0002,10.5519 55.5522,10.9999 55.0002,10.9999 C54.4472,10.9999 54.0002,10.5519 54.0002,9.9999 C54.0002,9.4479 54.4472,8.9999 55.0002,8.9999" id="Fill-44"></path>
                <path d="M43.0002,8.9999 C43.5522,8.9999 44.0002,9.4479 44.0002,9.9999 C44.0002,10.5519 43.5522,10.9999 43.0002,10.9999 C42.4472,10.9999 42.0002,10.5519 42.0002,9.9999 C42.0002,9.4479 42.4472,8.9999 43.0002,8.9999" id="Fill-46"></path>
                <path d="M49.0002,8.9999 C49.5522,8.9999 50.0002,9.4479 50.0002,9.9999 C50.0002,10.5519 49.5522,10.9999 49.0002,10.9999 C48.4472,10.9999 48.0002,10.5519 48.0002,9.9999 C48.0002,9.4479 48.4472,8.9999 49.0002,8.9999" id="Fill-48"></path>
                <path d="M72.9997,8.9999 C73.5527,8.9999 73.9997,9.4479 73.9997,9.9999 C73.9997,10.5519 73.5527,10.9999 72.9997,10.9999 C72.4477,10.9999 71.9997,10.5519 71.9997,9.9999 C71.9997,9.4479 72.4477,8.9999 72.9997,8.9999" id="Fill-50"></path>
                <path d="M78.9997,8.9999 C79.5527,8.9999 79.9997,9.4479 79.9997,9.9999 C79.9997,10.5519 79.5527,10.9999 78.9997,10.9999 C78.4477,10.9999 77.9997,10.5519 77.9997,9.9999 C77.9997,9.4479 78.4477,8.9999 78.9997,8.9999" id="Fill-52"></path>
                <path d="M75.9997,-0.0001 C76.5527,-0.0001 76.9997,0.4479 76.9997,0.9999 C76.9997,1.5519 76.5527,1.9999 75.9997,1.9999 C75.4477,1.9999 74.9997,1.5519 74.9997,0.9999 C74.9997,0.4479 75.4477,-0.0001 75.9997,-0.0001" id="Fill-54"></path>
                <path d="M81.9997,-0.0001 C82.5527,-0.0001 82.9997,0.4479 82.9997,0.9999 C82.9997,1.5519 82.5527,1.9999 81.9997,1.9999 C81.4477,1.9999 80.9997,1.5519 80.9997,0.9999 C80.9997,0.4479 81.4477,-0.0001 81.9997,-0.0001" id="Fill-57"></path>
                <path d="M75.9997,5.9999 C76.5527,5.9999 76.9997,6.4479 76.9997,6.9999 C76.9997,7.5519 76.5527,7.9999 75.9997,7.9999 C75.4477,7.9999 74.9997,7.5519 74.9997,6.9999 C74.9997,6.4479 75.4477,5.9999 75.9997,5.9999" id="Fill-60"></path>
                <path d="M81.9997,5.9999 C82.5527,5.9999 82.9997,6.4479 82.9997,6.9999 C82.9997,7.5519 82.5527,7.9999 81.9997,7.9999 C81.4477,7.9999 80.9997,7.5519 80.9997,6.9999 C80.9997,6.4479 81.4477,5.9999 81.9997,5.9999" id="Fill-62"></path>
                <path d="M60.9997,14.9999 C61.5527,14.9999 61.9997,15.4479 61.9997,15.9999 C61.9997,16.5529 61.5527,16.9999 60.9997,16.9999 C60.4477,16.9999 59.9997,16.5529 59.9997,15.9999 C59.9997,15.4479 60.4477,14.9999 60.9997,14.9999" id="Fill-64"></path>
                <path d="M63.9997,11.9999 C64.5527,11.9999 64.9997,12.4479 64.9997,12.9999 C64.9997,13.5519 64.5527,13.9999 63.9997,13.9999 C63.4477,13.9999 62.9997,13.5519 62.9997,12.9999 C62.9997,12.4479 63.4477,11.9999 63.9997,11.9999" id="Fill-66"></path>
                <path d="M63.9997,17.9999 C64.5527,17.9999 64.9997,18.4479 64.9997,18.9999 C64.9997,19.5529 64.5527,19.9999 63.9997,19.9999 C63.4477,19.9999 62.9997,19.5529 62.9997,18.9999 C62.9997,18.4479 63.4477,17.9999 63.9997,17.9999" id="Fill-68"></path>
                <path d="M66.9997,14.9999 C67.5527,14.9999 67.9997,15.4479 67.9997,15.9999 C67.9997,16.5529 67.5527,16.9999 66.9997,16.9999 C66.4477,16.9999 65.9997,16.5529 65.9997,15.9999 C65.9997,15.4479 66.4477,14.9999 66.9997,14.9999" id="Fill-70"></path>
                <path d="M55.0002,14.9999 C55.5522,14.9999 56.0002,15.4479 56.0002,15.9999 C56.0002,16.5529 55.5522,16.9999 55.0002,16.9999 C54.4472,16.9999 54.0002,16.5529 54.0002,15.9999 C54.0002,15.4479 54.4472,14.9999 55.0002,14.9999" id="Fill-72"></path>
                <path d="M57.9997,11.9999 C58.5527,11.9999 58.9997,12.4479 58.9997,12.9999 C58.9997,13.5519 58.5527,13.9999 57.9997,13.9999 C57.4477,13.9999 56.9997,13.5519 56.9997,12.9999 C56.9997,12.4479 57.4477,11.9999 57.9997,11.9999" id="Fill-74"></path>
                <path d="M57.9997,17.9999 C58.5527,17.9999 58.9997,18.4479 58.9997,18.9999 C58.9997,19.5529 58.5527,19.9999 57.9997,19.9999 C57.4477,19.9999 56.9997,19.5529 56.9997,18.9999 C56.9997,18.4479 57.4477,17.9999 57.9997,17.9999" id="Fill-76"></path>
                <path d="M49.0002,14.9999 C49.5522,14.9999 50.0002,15.4479 50.0002,15.9999 C50.0002,16.5529 49.5522,16.9999 49.0002,16.9999 C48.4472,16.9999 48.0002,16.5529 48.0002,15.9999 C48.0002,15.4479 48.4472,14.9999 49.0002,14.9999" id="Fill-78"></path>
                <path d="M46,12 C46.552,12 47,12.448 47,13 C47,13.552 46.552,14 46,14 C45.447,14 45,13.552 45,13 C45,12.448 45.447,12 46,12" id="Fill-80"></path>
                <path d="M43,15 C43.552,15 44,15.448 44,16 C44,16.552 43.552,17 43,17 C42.447,17 42,16.552 42,16 C42,15.448 42.447,15 43,15" id="Fill-80-Copy"></path>
                <path d="M43,21 C43.552,21 44,21.448 44,22 C44,22.552 43.552,23 43,23 C42.447,23 42,22.552 42,22 C42,21.448 42.447,21 43,21" id="Fill-80-Copy-2"></path>
                <path d="M52.0002,11.9999 C52.5522,11.9999 53.0002,12.4479 53.0002,12.9999 C53.0002,13.5519 52.5522,13.9999 52.0002,13.9999 C51.4472,13.9999 51.0002,13.5519 51.0002,12.9999 C51.0002,12.4479 51.4472,11.9999 52.0002,11.9999" id="Fill-82"></path>
                <path d="M46.0002,17.9999 C46.5522,17.9999 47.0002,18.4479 47.0002,18.9999 C47.0002,19.5529 46.5522,19.9999 46.0002,19.9999 C45.4472,19.9999 45.0002,19.5529 45.0002,18.9999 C45.0002,18.4479 45.4472,17.9999 46.0002,17.9999" id="Fill-84"></path>
                <path d="M52.0002,17.9999 C52.5522,17.9999 53.0002,18.4479 53.0002,18.9999 C53.0002,19.5529 52.5522,19.9999 52.0002,19.9999 C51.4472,19.9999 51.0002,19.5529 51.0002,18.9999 C51.0002,18.4479 51.4472,17.9999 52.0002,17.9999" id="Fill-86"></path>
                <path d="M69.9997,11.9999 C70.5527,11.9999 70.9997,12.4479 70.9997,12.9999 C70.9997,13.5519 70.5527,13.9999 69.9997,13.9999 C69.4477,13.9999 68.9997,13.5519 68.9997,12.9999 C68.9997,12.4479 69.4477,11.9999 69.9997,11.9999" id="Fill-88"></path>
                <path d="M69.9997,17.9999 C70.5527,17.9999 70.9997,18.4479 70.9997,18.9999 C70.9997,19.5529 70.5527,19.9999 69.9997,19.9999 C69.4477,19.9999 68.9997,19.5529 68.9997,18.9999 C68.9997,18.4479 69.4477,17.9999 69.9997,17.9999" id="Fill-90"></path>
                <path d="M72.9997,14.9999 C73.5527,14.9999 73.9997,15.4479 73.9997,15.9999 C73.9997,16.5529 73.5527,16.9999 72.9997,16.9999 C72.4477,16.9999 71.9997,16.5529 71.9997,15.9999 C71.9997,15.4479 72.4477,14.9999 72.9997,14.9999" id="Fill-92"></path>
                <path d="M78.9997,14.9999 C79.5527,14.9999 79.9997,15.4479 79.9997,15.9999 C79.9997,16.5529 79.5527,16.9999 78.9997,16.9999 C78.4477,16.9999 77.9997,16.5529 77.9997,15.9999 C77.9997,15.4479 78.4477,14.9999 78.9997,14.9999" id="Fill-94"></path>
                <path d="M60.9997,20.9999 C61.5527,20.9999 61.9997,21.4479 61.9997,21.9999 C61.9997,22.5529 61.5527,22.9999 60.9997,22.9999 C60.4477,22.9999 59.9997,22.5529 59.9997,21.9999 C59.9997,21.4479 60.4477,20.9999 60.9997,20.9999" id="Fill-96"></path>
                <path d="M66.9997,20.9999 C67.5527,20.9999 67.9997,21.4479 67.9997,21.9999 C67.9997,22.5529 67.5527,22.9999 66.9997,22.9999 C66.4477,22.9999 65.9997,22.5529 65.9997,21.9999 C65.9997,21.4479 66.4477,20.9999 66.9997,20.9999" id="Fill-98"></path>
                <path d="M55.0002,20.9999 C55.5522,20.9999 56.0002,21.4479 56.0002,21.9999 C56.0002,22.5529 55.5522,22.9999 55.0002,22.9999 C54.4472,22.9999 54.0002,22.5529 54.0002,21.9999 C54.0002,21.4479 54.4472,20.9999 55.0002,20.9999" id="Fill-100"></path>
                <path d="M49.0002,20.9999 C49.5522,20.9999 50.0002,21.4479 50.0002,21.9999 C50.0002,22.5529 49.5522,22.9999 49.0002,22.9999 C48.4472,22.9999 48.0002,22.5529 48.0002,21.9999 C48.0002,21.4479 48.4472,20.9999 49.0002,20.9999" id="Fill-102"></path>
                <path d="M72.9997,20.9999 C73.5527,20.9999 73.9997,21.4479 73.9997,21.9999 C73.9997,22.5529 73.5527,22.9999 72.9997,22.9999 C72.4477,22.9999 71.9997,22.5529 71.9997,21.9999 C71.9997,21.4479 72.4477,20.9999 72.9997,20.9999" id="Fill-104"></path>
                <path d="M78.9997,20.9999 C79.5527,20.9999 79.9997,21.4479 79.9997,21.9999 C79.9997,22.5529 79.5527,22.9999 78.9997,22.9999 C78.4477,22.9999 77.9997,22.5529 77.9997,21.9999 C77.9997,21.4479 78.4477,20.9999 78.9997,20.9999" id="Fill-106"></path>
                <path d="M75.9997,11.9999 C76.5527,11.9999 76.9997,12.4479 76.9997,12.9999 C76.9997,13.5519 76.5527,13.9999 75.9997,13.9999 C75.4477,13.9999 74.9997,13.5519 74.9997,12.9999 C74.9997,12.4479 75.4477,11.9999 75.9997,11.9999" id="Fill-108"></path>
                <path d="M81.9997,11.9999 C82.5527,11.9999 82.9997,12.4479 82.9997,12.9999 C82.9997,13.5519 82.5527,13.9999 81.9997,13.9999 C81.4477,13.9999 80.9997,13.5519 80.9997,12.9999 C80.9997,12.4479 81.4477,11.9999 81.9997,11.9999" id="Fill-110"></path>
                <path d="M75.9997,17.9999 C76.5527,17.9999 76.9997,18.4479 76.9997,18.9999 C76.9997,19.5529 76.5527,19.9999 75.9997,19.9999 C75.4477,19.9999 74.9997,19.5529 74.9997,18.9999 C74.9997,18.4479 75.4477,17.9999 75.9997,17.9999" id="Fill-112"></path>
                <path d="M81.9997,17.9999 C82.5527,17.9999 82.9997,18.4479 82.9997,18.9999 C82.9997,19.5529 82.5527,19.9999 81.9997,19.9999 C81.4477,19.9999 80.9997,19.5529 80.9997,18.9999 C80.9997,18.4479 81.4477,17.9999 81.9997,17.9999" id="Fill-114"></path>
            </g>
        </g>
    </g>
</svg>