<?xml version="1.0" encoding="UTF-8"?>
<svg width="91px" height="60px" viewBox="0 0 91 60" version="1.1" xmlns="http://www.w3.org/2000/svg" xmlns:xlink="http://www.w3.org/1999/xlink">
    <!-- Generator: Sketch 48.2 (47327) - http://www.bohemiancoding.com/sketch -->
    <title>Group 2</title>
    <desc>Created with Sketch.</desc>
    <defs></defs>
    <g id="Start-a-Pool" stroke="none" stroke-width="1" fill="none" fill-rule="evenodd" transform="translate(-280.000000, -428.000000)">
        <g id="Group-2" transform="translate(281.000000, 428.000000)">
            <polyline id="Path-4-Copy" stroke="#0000FF" points="0 0 0 58.8113849 88.6709223 58.8113849"></polyline>
            <path d="M0.211914062,51.9404297 C15.9680717,51.6355679 32.6721732,47.4148648 50.3242188,39.2783203 C67.9762643,31.1417758 80.7869501,20.4245817 88.7562763,7.12673795" id="Path-5-Copy" stroke="#0000FF"></path>
            <g id="Group" transform="translate(9.000000, 21.000000)" fill="#0000FF">
                <path d="M16,30 C16.553,30 17,30.448 17,31 C17,31.553 16.553,32 16,32 C15.448,32 15,31.553 15,31 C15,30.448 15.448,30 16,30" id="Fill-68"></path>
                <path d="M10,30 C10.553,30 11,30.448 11,31 C11,31.553 10.553,32 10,32 C9.448,32 9,31.553 9,31 C9,30.448 9.448,30 10,30" id="Fill-68-Copy"></path>
                <path d="M21.9997,29.9999 C22.5527,29.9999 22.9997,30.4479 22.9997,30.9999 C22.9997,31.5529 22.5527,31.9999 21.9997,31.9999 C21.4477,31.9999 20.9997,31.5529 20.9997,30.9999 C20.9997,30.4479 21.4477,29.9999 21.9997,29.9999" id="Fill-90"></path>
                <path d="M24.9997,26.9999 C25.5527,26.9999 25.9997,27.4479 25.9997,27.9999 C25.9997,28.5529 25.5527,28.9999 24.9997,28.9999 C24.4477,28.9999 23.9997,28.5529 23.9997,27.9999 C23.9997,27.4479 24.4477,26.9999 24.9997,26.9999" id="Fill-92"></path>
                <path d="M30.9997,26.9999 C31.5527,26.9999 31.9997,27.4479 31.9997,27.9999 C31.9997,28.5529 31.5527,28.9999 30.9997,28.9999 C30.4477,28.9999 29.9997,28.5529 29.9997,27.9999 C29.9997,27.4479 30.4477,26.9999 30.9997,26.9999" id="Fill-94"></path>
                <path d="M12.9997,32.9999 C13.5527,32.9999 13.9997,33.4479 13.9997,33.9999 C13.9997,34.5529 13.5527,34.9999 12.9997,34.9999 C12.4477,34.9999 11.9997,34.5529 11.9997,33.9999 C11.9997,33.4479 12.4477,32.9999 12.9997,32.9999" id="Fill-96"></path>
                <path d="M18.9997,32.9999 C19.5527,32.9999 19.9997,33.4479 19.9997,33.9999 C19.9997,34.5529 19.5527,34.9999 18.9997,34.9999 C18.4477,34.9999 17.9997,34.5529 17.9997,33.9999 C17.9997,33.4479 18.4477,32.9999 18.9997,32.9999" id="Fill-98"></path>
                <path d="M7.0002,32.9999 C7.5522,32.9999 8.0002,33.4479 8.0002,33.9999 C8.0002,34.5529 7.5522,34.9999 7.0002,34.9999 C6.4472,34.9999 6.0002,34.5529 6.0002,33.9999 C6.0002,33.4479 6.4472,32.9999 7.0002,32.9999" id="Fill-100"></path>
                <path d="M1.0002,32.9999 C1.5522,32.9999 2.0002,33.4479 2.0002,33.9999 C2.0002,34.5529 1.5522,34.9999 1.0002,34.9999 C0.4472,34.9999 0.0002,34.5529 0.0002,33.9999 C0.0002,33.4479 0.4472,32.9999 1.0002,32.9999" id="Fill-102"></path>
                <path d="M24.9997,32.9999 C25.5527,32.9999 25.9997,33.4479 25.9997,33.9999 C25.9997,34.5529 25.5527,34.9999 24.9997,34.9999 C24.4477,34.9999 23.9997,34.5529 23.9997,33.9999 C23.9997,33.4479 24.4477,32.9999 24.9997,32.9999" id="Fill-104"></path>
                <path d="M30.9997,32.9999 C31.5527,32.9999 31.9997,33.4479 31.9997,33.9999 C31.9997,34.5529 31.5527,34.9999 30.9997,34.9999 C30.4477,34.9999 29.9997,34.5529 29.9997,33.9999 C29.9997,33.4479 30.4477,32.9999 30.9997,32.9999" id="Fill-106"></path>
                <path d="M33.9997,23.9999 C34.5527,23.9999 34.9997,24.4479 34.9997,24.9999 C34.9997,25.5519 34.5527,25.9999 33.9997,25.9999 C33.4477,25.9999 32.9997,25.5519 32.9997,24.9999 C32.9997,24.4479 33.4477,23.9999 33.9997,23.9999" id="Fill-110"></path>
                <path d="M27.9997,29.9999 C28.5527,29.9999 28.9997,30.4479 28.9997,30.9999 C28.9997,31.5529 28.5527,31.9999 27.9997,31.9999 C27.4477,31.9999 26.9997,31.5529 26.9997,30.9999 C26.9997,30.4479 27.4477,29.9999 27.9997,29.9999" id="Fill-112"></path>
                <path d="M33.9997,29.9999 C34.5527,29.9999 34.9997,30.4479 34.9997,30.9999 C34.9997,31.5529 34.5527,31.9999 33.9997,31.9999 C33.4477,31.9999 32.9997,31.5529 32.9997,30.9999 C32.9997,30.4479 33.4477,29.9999 33.9997,29.9999" id="Fill-114"></path>
                <path d="M54.9997,14.9999 C55.5527,14.9999 55.9997,15.4479 55.9997,15.9999 C55.9997,16.5519 55.5527,16.9999 54.9997,16.9999 C54.4477,16.9999 53.9997,16.5519 53.9997,15.9999 C53.9997,15.4479 54.4477,14.9999 54.9997,14.9999" id="Fill-1"></path>
                <path d="M57.9997,11.9999 C58.5527,11.9999 58.9997,12.4479 58.9997,12.9999 C58.9997,13.5519 58.5527,13.9999 57.9997,13.9999 C57.4477,13.9999 56.9997,13.5519 56.9997,12.9999 C56.9997,12.4479 57.4477,11.9999 57.9997,11.9999" id="Fill-3"></path>
                <path d="M57.9997,17.9999 C58.5527,17.9999 58.9997,18.4479 58.9997,18.9999 C58.9997,19.5519 58.5527,19.9999 57.9997,19.9999 C57.4477,19.9999 56.9997,19.5519 56.9997,18.9999 C56.9997,18.4479 57.4477,17.9999 57.9997,17.9999" id="Fill-6"></path>
                <path d="M61,15 C61.553,15 62,15.448 62,16 C62,16.552 61.553,17 61,17 C60.448,17 60,16.552 60,16 C60,15.448 60.448,15 61,15" id="Fill-8"></path>
                <path d="M61,9 C61.553,9 62,9.448 62,10 C62,10.552 61.553,11 61,11 C60.448,11 60,10.552 60,10 C60,9.448 60.448,9 61,9" id="Fill-8-Copy"></path>
                <path d="M51.9997,17.9999 C52.5527,17.9999 52.9997,18.4479 52.9997,18.9999 C52.9997,19.5519 52.5527,19.9999 51.9997,19.9999 C51.4477,19.9999 50.9997,19.5519 50.9997,18.9999 C50.9997,18.4479 51.4477,17.9999 51.9997,17.9999" id="Fill-15"></path>
                <path d="M64,12 C64.553,12 65,12.448 65,13 C65,13.552 64.553,14 64,14 C63.448,14 63,13.552 63,13 C63,12.448 63.448,12 64,12" id="Fill-31"></path>
                <path d="M64,6 C64.553,6 65,6.448 65,7 C65,7.552 64.553,8 64,8 C63.448,8 63,7.552 63,7 C63,6.448 63.448,6 64,6" id="Fill-31-Copy"></path>
                <path d="M63.9997,17.9999 C64.5527,17.9999 64.9997,18.4479 64.9997,18.9999 C64.9997,19.5519 64.5527,19.9999 63.9997,19.9999 C63.4477,19.9999 62.9997,19.5519 62.9997,18.9999 C62.9997,18.4479 63.4477,17.9999 63.9997,17.9999" id="Fill-34"></path>
                <path d="M66.9997,14.9999 C67.5527,14.9999 67.9997,15.4479 67.9997,15.9999 C67.9997,16.5519 67.5527,16.9999 66.9997,16.9999 C66.4477,16.9999 65.9997,16.5519 65.9997,15.9999 C65.9997,15.4479 66.4477,14.9999 66.9997,14.9999" id="Fill-36"></path>
                <path d="M72.9997,14.9999 C73.5527,14.9999 73.9997,15.4479 73.9997,15.9999 C73.9997,16.5519 73.5527,16.9999 72.9997,16.9999 C72.4477,16.9999 71.9997,16.5519 71.9997,15.9999 C71.9997,15.4479 72.4477,14.9999 72.9997,14.9999" id="Fill-38"></path>
                <path d="M54.9997,20.9999 C55.5527,20.9999 55.9997,21.4479 55.9997,21.9999 C55.9997,22.5519 55.5527,22.9999 54.9997,22.9999 C54.4477,22.9999 53.9997,22.5519 53.9997,21.9999 C53.9997,21.4479 54.4477,20.9999 54.9997,20.9999" id="Fill-40"></path>
                <path d="M60.9997,20.9999 C61.5527,20.9999 61.9997,21.4479 61.9997,21.9999 C61.9997,22.5519 61.5527,22.9999 60.9997,22.9999 C60.4477,22.9999 59.9997,22.5519 59.9997,21.9999 C59.9997,21.4479 60.4477,20.9999 60.9997,20.9999" id="Fill-42"></path>
                <path d="M49,21 C49.552,21 50,21.448 50,22 C50,22.552 49.552,23 49,23 C48.447,23 48,22.552 48,22 C48,21.448 48.447,21 49,21" id="Fill-44"></path>
                <path d="M43.0002,20.9999 C43.5522,20.9999 44.0002,21.4479 44.0002,21.9999 C44.0002,22.5519 43.5522,22.9999 43.0002,22.9999 C42.4472,22.9999 42.0002,22.5519 42.0002,21.9999 C42.0002,21.4479 42.4472,20.9999 43.0002,20.9999" id="Fill-48"></path>
                <path d="M66.9997,20.9999 C67.5527,20.9999 67.9997,21.4479 67.9997,21.9999 C67.9997,22.5519 67.5527,22.9999 66.9997,22.9999 C66.4477,22.9999 65.9997,22.5519 65.9997,21.9999 C65.9997,21.4479 66.4477,20.9999 66.9997,20.9999" id="Fill-50"></path>
                <path d="M72.9997,20.9999 C73.5527,20.9999 73.9997,21.4479 73.9997,21.9999 C73.9997,22.5519 73.5527,22.9999 72.9997,22.9999 C72.4477,22.9999 71.9997,22.5519 71.9997,21.9999 C71.9997,21.4479 72.4477,20.9999 72.9997,20.9999" id="Fill-52"></path>
                <path d="M69.9997,11.9999 C70.5527,11.9999 70.9997,12.4479 70.9997,12.9999 C70.9997,13.5519 70.5527,13.9999 69.9997,13.9999 C69.4477,13.9999 68.9997,13.5519 68.9997,12.9999 C68.9997,12.4479 69.4477,11.9999 69.9997,11.9999" id="Fill-54"></path>
                <path d="M75.9997,11.9999 C76.5527,11.9999 76.9997,12.4479 76.9997,12.9999 C76.9997,13.5519 76.5527,13.9999 75.9997,13.9999 C75.4477,13.9999 74.9997,13.5519 74.9997,12.9999 C74.9997,12.4479 75.4477,11.9999 75.9997,11.9999" id="Fill-57"></path>
                <path d="M69.9997,17.9999 C70.5527,17.9999 70.9997,18.4479 70.9997,18.9999 C70.9997,19.5519 70.5527,19.9999 69.9997,19.9999 C69.4477,19.9999 68.9997,19.5519 68.9997,18.9999 C68.9997,18.4479 69.4477,17.9999 69.9997,17.9999" id="Fill-60"></path>
                <path d="M75.9997,17.9999 C76.5527,17.9999 76.9997,18.4479 76.9997,18.9999 C76.9997,19.5519 76.5527,19.9999 75.9997,19.9999 C75.4477,19.9999 74.9997,19.5519 74.9997,18.9999 C74.9997,18.4479 75.4477,17.9999 75.9997,17.9999" id="Fill-62"></path>
                <path d="M54.9997,26.9999 C55.5527,26.9999 55.9997,27.4479 55.9997,27.9999 C55.9997,28.5529 55.5527,28.9999 54.9997,28.9999 C54.4477,28.9999 53.9997,28.5529 53.9997,27.9999 C53.9997,27.4479 54.4477,26.9999 54.9997,26.9999" id="Fill-64"></path>
                <path d="M57.9997,23.9999 C58.5527,23.9999 58.9997,24.4479 58.9997,24.9999 C58.9997,25.5519 58.5527,25.9999 57.9997,25.9999 C57.4477,25.9999 56.9997,25.5519 56.9997,24.9999 C56.9997,24.4479 57.4477,23.9999 57.9997,23.9999" id="Fill-66"></path>
                <path d="M57.9997,29.9999 C58.5527,29.9999 58.9997,30.4479 58.9997,30.9999 C58.9997,31.5529 58.5527,31.9999 57.9997,31.9999 C57.4477,31.9999 56.9997,31.5529 56.9997,30.9999 C56.9997,30.4479 57.4477,29.9999 57.9997,29.9999" id="Fill-68"></path>
                <path d="M60.9997,26.9999 C61.5527,26.9999 61.9997,27.4479 61.9997,27.9999 C61.9997,28.5529 61.5527,28.9999 60.9997,28.9999 C60.4477,28.9999 59.9997,28.5529 59.9997,27.9999 C59.9997,27.4479 60.4477,26.9999 60.9997,26.9999" id="Fill-70"></path>
                <path d="M49.0002,26.9999 C49.5522,26.9999 50.0002,27.4479 50.0002,27.9999 C50.0002,28.5529 49.5522,28.9999 49.0002,28.9999 C48.4472,28.9999 48.0002,28.5529 48.0002,27.9999 C48.0002,27.4479 48.4472,26.9999 49.0002,26.9999" id="Fill-72"></path>
                <path d="M51.9997,23.9999 C52.5527,23.9999 52.9997,24.4479 52.9997,24.9999 C52.9997,25.5519 52.5527,25.9999 51.9997,25.9999 C51.4477,25.9999 50.9997,25.5519 50.9997,24.9999 C50.9997,24.4479 51.4477,23.9999 51.9997,23.9999" id="Fill-74"></path>
                <path d="M51.9997,29.9999 C52.5527,29.9999 52.9997,30.4479 52.9997,30.9999 C52.9997,31.5529 52.5527,31.9999 51.9997,31.9999 C51.4477,31.9999 50.9997,31.5529 50.9997,30.9999 C50.9997,30.4479 51.4477,29.9999 51.9997,29.9999" id="Fill-76"></path>
                <path d="M43.0002,26.9999 C43.5522,26.9999 44.0002,27.4479 44.0002,27.9999 C44.0002,28.5529 43.5522,28.9999 43.0002,28.9999 C42.4472,28.9999 42.0002,28.5529 42.0002,27.9999 C42.0002,27.4479 42.4472,26.9999 43.0002,26.9999" id="Fill-78"></path>
                <path d="M40,24 C40.552,24 41,24.448 41,25 C41,25.552 40.552,26 40,26 C39.447,26 39,25.552 39,25 C39,24.448 39.447,24 40,24" id="Fill-80"></path>
                <path d="M37,27 C37.552,27 38,27.448 38,28 C38,28.552 37.552,29 37,29 C36.447,29 36,28.552 36,28 C36,27.448 36.447,27 37,27" id="Fill-80-Copy"></path>
                <path d="M37,33 C37.552,33 38,33.448 38,34 C38,34.552 37.552,35 37,35 C36.447,35 36,34.552 36,34 C36,33.448 36.447,33 37,33" id="Fill-80-Copy-2"></path>
                <path d="M46,24 C46.552,24 47,24.448 47,25 C47,25.552 46.552,26 46,26 C45.447,26 45,25.552 45,25 C45,24.448 45.447,24 46,24" id="Fill-82"></path>
                <path d="M46,18 C46.552,18 47,18.448 47,19 C47,19.552 46.552,20 46,20 C45.447,20 45,19.552 45,19 C45,18.448 45.447,18 46,18" id="Fill-82-Copy"></path>
                <path d="M40.0002,29.9999 C40.5522,29.9999 41.0002,30.4479 41.0002,30.9999 C41.0002,31.5529 40.5522,31.9999 40.0002,31.9999 C39.4472,31.9999 39.0002,31.5529 39.0002,30.9999 C39.0002,30.4479 39.4472,29.9999 40.0002,29.9999" id="Fill-84"></path>
                <path d="M46.0002,29.9999 C46.5522,29.9999 47.0002,30.4479 47.0002,30.9999 C47.0002,31.5529 46.5522,31.9999 46.0002,31.9999 C45.4472,31.9999 45.0002,31.5529 45.0002,30.9999 C45.0002,30.4479 45.4472,29.9999 46.0002,29.9999" id="Fill-86"></path>
                <path d="M63.9997,23.9999 C64.5527,23.9999 64.9997,24.4479 64.9997,24.9999 C64.9997,25.5519 64.5527,25.9999 63.9997,25.9999 C63.4477,25.9999 62.9997,25.5519 62.9997,24.9999 C62.9997,24.4479 63.4477,23.9999 63.9997,23.9999" id="Fill-88"></path>
                <path d="M63.9997,29.9999 C64.5527,29.9999 64.9997,30.4479 64.9997,30.9999 C64.9997,31.5529 64.5527,31.9999 63.9997,31.9999 C63.4477,31.9999 62.9997,31.5529 62.9997,30.9999 C62.9997,30.4479 63.4477,29.9999 63.9997,29.9999" id="Fill-90"></path>
                <path d="M66.9997,26.9999 C67.5527,26.9999 67.9997,27.4479 67.9997,27.9999 C67.9997,28.5529 67.5527,28.9999 66.9997,28.9999 C66.4477,28.9999 65.9997,28.5529 65.9997,27.9999 C65.9997,27.4479 66.4477,26.9999 66.9997,26.9999" id="Fill-92"></path>
                <path d="M72.9997,26.9999 C73.5527,26.9999 73.9997,27.4479 73.9997,27.9999 C73.9997,28.5529 73.5527,28.9999 72.9997,28.9999 C72.4477,28.9999 71.9997,28.5529 71.9997,27.9999 C71.9997,27.4479 72.4477,26.9999 72.9997,26.9999" id="Fill-94"></path>
                <path d="M54.9997,32.9999 C55.5527,32.9999 55.9997,33.4479 55.9997,33.9999 C55.9997,34.5529 55.5527,34.9999 54.9997,34.9999 C54.4477,34.9999 53.9997,34.5529 53.9997,33.9999 C53.9997,33.4479 54.4477,32.9999 54.9997,32.9999" id="Fill-96"></path>
                <path d="M60.9997,32.9999 C61.5527,32.9999 61.9997,33.4479 61.9997,33.9999 C61.9997,34.5529 61.5527,34.9999 60.9997,34.9999 C60.4477,34.9999 59.9997,34.5529 59.9997,33.9999 C59.9997,33.4479 60.4477,32.9999 60.9997,32.9999" id="Fill-98"></path>
                <path d="M49.0002,32.9999 C49.5522,32.9999 50.0002,33.4479 50.0002,33.9999 C50.0002,34.5529 49.5522,34.9999 49.0002,34.9999 C48.4472,34.9999 48.0002,34.5529 48.0002,33.9999 C48.0002,33.4479 48.4472,32.9999 49.0002,32.9999" id="Fill-100"></path>
                <path d="M43.0002,32.9999 C43.5522,32.9999 44.0002,33.4479 44.0002,33.9999 C44.0002,34.5529 43.5522,34.9999 43.0002,34.9999 C42.4472,34.9999 42.0002,34.5529 42.0002,33.9999 C42.0002,33.4479 42.4472,32.9999 43.0002,32.9999" id="Fill-102"></path>
                <path d="M66.9997,32.9999 C67.5527,32.9999 67.9997,33.4479 67.9997,33.9999 C67.9997,34.5529 67.5527,34.9999 66.9997,34.9999 C66.4477,34.9999 65.9997,34.5529 65.9997,33.9999 C65.9997,33.4479 66.4477,32.9999 66.9997,32.9999" id="Fill-104"></path>
                <path d="M72.9997,32.9999 C73.5527,32.9999 73.9997,33.4479 73.9997,33.9999 C73.9997,34.5529 73.5527,34.9999 72.9997,34.9999 C72.4477,34.9999 71.9997,34.5529 71.9997,33.9999 C71.9997,33.4479 72.4477,32.9999 72.9997,32.9999" id="Fill-106"></path>
                <path d="M69.9997,23.9999 C70.5527,23.9999 70.9997,24.4479 70.9997,24.9999 C70.9997,25.5519 70.5527,25.9999 69.9997,25.9999 C69.4477,25.9999 68.9997,25.5519 68.9997,24.9999 C68.9997,24.4479 69.4477,23.9999 69.9997,23.9999" id="Fill-108"></path>
                <path d="M75.9997,23.9999 C76.5527,23.9999 76.9997,24.4479 76.9997,24.9999 C76.9997,25.5519 76.5527,25.9999 75.9997,25.9999 C75.4477,25.9999 74.9997,25.5519 74.9997,24.9999 C74.9997,24.4479 75.4477,23.9999 75.9997,23.9999" id="Fill-110"></path>
                <path d="M69.9997,29.9999 C70.5527,29.9999 70.9997,30.4479 70.9997,30.9999 C70.9997,31.5529 70.5527,31.9999 69.9997,31.9999 C69.4477,31.9999 68.9997,31.5529 68.9997,30.9999 C68.9997,30.4479 69.4477,29.9999 69.9997,29.9999" id="Fill-112"></path>
                <path d="M75.9997,29.9999 C76.5527,29.9999 76.9997,30.4479 76.9997,30.9999 C76.9997,31.5529 76.5527,31.9999 75.9997,31.9999 C75.4477,31.9999 74.9997,31.5529 74.9997,30.9999 C74.9997,30.4479 75.4477,29.9999 75.9997,29.9999" id="Fill-114"></path>
                <path d="M72.9997,2.9999 C73.5527,2.9999 73.9997,3.4479 73.9997,3.9999 C73.9997,4.5529 73.5527,4.9999 72.9997,4.9999 C72.4477,4.9999 71.9997,4.5529 71.9997,3.9999 C71.9997,3.4479 72.4477,2.9999 72.9997,2.9999" id="Fill-94"></path>
                <path d="M66.9997,8.9999 C67.5527,8.9999 67.9997,9.4479 67.9997,9.9999 C67.9997,10.5529 67.5527,10.9999 66.9997,10.9999 C66.4477,10.9999 65.9997,10.5529 65.9997,9.9999 C65.9997,9.4479 66.4477,8.9999 66.9997,8.9999" id="Fill-104"></path>
                <path d="M72.9997,8.9999 C73.5527,8.9999 73.9997,9.4479 73.9997,9.9999 C73.9997,10.5529 73.5527,10.9999 72.9997,10.9999 C72.4477,10.9999 71.9997,10.5529 71.9997,9.9999 C71.9997,9.4479 72.4477,8.9999 72.9997,8.9999" id="Fill-106"></path>
                <path d="M75.9997,-0.0001 C76.5527,-0.0001 76.9997,0.4479 76.9997,0.9999 C76.9997,1.5519 76.5527,1.9999 75.9997,1.9999 C75.4477,1.9999 74.9997,1.5519 74.9997,0.9999 C74.9997,0.4479 75.4477,-0.0001 75.9997,-0.0001" id="Fill-110"></path>
                <path d="M70,6 C70.553,6 71,6.448 71,7 C71,7.553 70.553,8 70,8 C69.448,8 69,7.553 69,7 C69,6.448 69.448,6 70,6" id="Fill-112"></path>
                <path d="M75.9997,5.9999 C76.5527,5.9999 76.9997,6.4479 76.9997,6.9999 C76.9997,7.5529 76.5527,7.9999 75.9997,7.9999 C75.4477,7.9999 74.9997,7.5529 74.9997,6.9999 C74.9997,6.4479 75.4477,5.9999 75.9997,5.9999" id="Fill-114"></path>
            </g>
        </g>
    </g>
</svg>